<svg id="svg" version="1.1" xmlns="http://www.w3.org/2000/svg" xmlns:xlink="http://www.w3.org/1999/xlink" width="400" height="175.47169811320754" viewBox="0, 0, 400,175.47169811320754"><g id="svgg"><path id="path0" d="M111.365 63.032 C 109.507 64.017,108.837 66.201,109.780 68.194 C 110.293 69.278,110.404 69.334,112.279 69.458 C 114.089 69.577,114.634 69.375,115.062 68.426 C 115.236 68.040,115.561 67.580,115.785 67.404 C 116.471 66.864,116.169 65.519,115.110 64.406 C 114.739 64.016,114.436 63.601,114.436 63.484 C 114.436 62.987,112.098 62.643,111.365 63.032 M251.488 63.291 C 250.967 63.867,250.616 64.218,250.040 64.740 C 249.257 65.448,249.371 67.003,250.292 68.197 C 252.397 70.925,256.428 69.551,256.428 66.106 C 256.428 64.906,256.457 64.952,254.783 63.446 C 253.863 62.619,252.169 62.539,251.488 63.291 M202.501 66.710 C 202.259 66.851,202.194 67.128,202.194 68.013 C 202.194 70.270,202.426 70.379,207.225 70.381 L 210.588 70.382 211.498 70.981 C 213.126 72.053,212.975 70.562,213.093 86.705 C 213.211 102.852,213.192 102.620,214.552 103.892 C 214.802 104.126,215.009 104.402,215.012 104.506 C 215.017 104.683,216.419 105.836,216.630 105.836 C 216.683 105.836,216.995 106.104,217.323 106.432 C 218.116 107.225,218.753 107.285,225.642 107.211 C 231.858 107.144,231.681 107.185,231.681 105.806 C 231.681 103.718,231.146 103.512,225.538 103.437 C 220.237 103.365,218.801 102.901,217.674 100.896 C 216.988 99.674,216.937 98.393,216.937 82.323 L 216.937 66.863 216.487 66.692 C 215.869 66.457,202.907 66.474,202.501 66.710 M73.278 67.700 C 72.236 67.797,72.137 68.140,72.137 71.644 L 72.137 74.591 71.611 75.093 C 70.910 75.764,69.442 75.998,65.951 75.998 C 62.836 75.998,62.835 75.999,62.835 77.429 C 62.835 79.424,63.285 79.685,66.716 79.682 C 69.736 79.680,70.897 80.073,71.627 81.347 L 72.134 82.229 72.143 91.795 C 72.153 102.087,72.193 102.605,73.046 103.458 C 73.300 103.712,73.631 104.178,73.780 104.494 C 73.966 104.886,74.359 105.228,75.020 105.574 C 75.552 105.852,76.025 106.179,76.071 106.300 C 76.355 107.040,77.106 107.146,82.543 107.210 C 88.687 107.282,88.635 107.294,88.635 105.823 C 88.635 103.718,88.212 103.503,83.896 103.414 C 81.030 103.354,80.388 103.292,79.947 103.033 C 79.658 102.863,79.036 102.615,78.566 102.481 C 77.634 102.216,76.934 101.545,76.785 100.776 C 76.735 100.518,76.617 99.970,76.522 99.559 C 76.421 99.123,76.349 95.285,76.349 90.379 C 76.349 80.973,76.291 81.441,77.605 80.316 L 78.343 79.684 83.104 79.684 L 87.864 79.684 88.425 79.105 C 88.931 78.584,88.986 78.421,88.986 77.466 C 88.986 75.972,89.091 75.998,83.208 75.998 C 76.193 75.998,76.349 76.093,76.349 71.828 C 76.349 69.626,76.293 68.896,76.109 68.712 C 75.622 68.225,74.537 67.574,74.262 67.604 C 74.107 67.621,73.664 67.664,73.278 67.700 M101.404 76.226 C 100.296 76.664,100.853 78.759,102.270 79.487 C 102.508 79.609,103.758 79.684,105.567 79.684 C 107.996 79.684,108.556 79.733,108.929 79.978 C 109.176 80.139,109.627 80.404,109.932 80.567 C 110.237 80.729,110.663 81.169,110.879 81.545 L 111.271 82.229 111.274 91.595 C 111.277 101.996,111.287 101.911,110.070 102.521 C 109.817 102.648,109.400 102.893,109.144 103.065 C 108.732 103.342,108.233 103.379,104.843 103.379 C 100.164 103.379,99.693 103.601,99.693 105.803 C 99.693 107.251,98.700 107.146,112.954 107.201 C 127.319 107.255,126.196 107.374,126.196 105.806 C 126.196 103.667,125.535 103.379,120.636 103.379 C 114.683 103.379,115.138 104.577,115.138 88.894 C 115.138 77.273,115.119 76.461,114.831 76.243 C 114.433 75.940,102.165 75.926,101.404 76.226 M134.226 76.243 C 133.766 76.591,133.747 106.529,134.206 106.909 C 134.555 107.199,136.880 107.328,137.253 107.078 C 137.482 106.925,137.528 105.270,137.604 94.566 L 137.692 82.229 138.159 81.511 C 138.416 81.116,138.743 80.676,138.886 80.533 C 139.029 80.390,139.175 80.123,139.210 79.939 C 139.452 78.687,142.731 78.917,143.776 80.260 C 144.092 80.667,144.480 81.119,144.636 81.264 C 145.425 81.993,145.410 81.762,145.502 94.653 C 145.579 105.285,145.625 106.924,145.853 107.068 C 146.198 107.286,147.639 107.286,148.211 107.069 L 148.662 106.898 148.661 95.704 C 148.661 83.055,148.728 82.020,149.616 80.957 C 149.919 80.595,150.299 80.088,150.461 79.831 C 151.267 78.554,155.331 79.434,155.331 80.886 C 155.331 80.967,155.523 81.256,155.756 81.528 C 156.532 82.431,156.560 82.906,156.560 95.109 L 156.560 106.694 156.950 106.967 C 157.485 107.341,159.330 107.335,159.870 106.956 L 160.275 106.673 160.200 94.100 C 160.117 80.416,160.131 80.607,159.113 79.271 C 158.867 78.949,158.666 78.622,158.666 78.544 C 158.666 78.329,156.734 76.474,156.247 76.221 C 155.409 75.786,151.821 76.072,151.821 76.573 C 151.821 77.076,150.157 78.280,149.463 78.280 C 149.215 78.280,149.013 78.350,149.013 78.436 C 149.013 79.092,148.040 78.778,147.101 77.820 C 145.505 76.189,145.139 75.998,143.604 75.998 C 142.335 75.998,141.115 76.271,141.115 76.554 C 141.115 76.628,140.556 77.052,139.874 77.498 L 138.634 78.307 138.207 77.811 C 137.972 77.538,137.780 77.179,137.780 77.014 C 137.779 76.121,135.141 75.548,134.226 76.243 M178.489 76.238 C 178.048 76.357,177.456 76.618,177.172 76.820 C 176.889 77.021,176.275 77.314,175.809 77.472 C 174.741 77.833,173.936 78.246,173.936 78.433 C 173.936 78.647,173.387 79.213,172.844 79.558 C 172.573 79.730,172.129 80.354,171.816 81.001 C 171.514 81.628,171.205 82.141,171.131 82.141 C 171.056 82.141,170.898 82.398,170.780 82.712 C 170.662 83.025,170.501 83.440,170.422 83.633 C 169.757 85.261,169.769 98.319,170.437 99.559 C 170.527 99.726,170.601 99.941,170.601 100.036 C 170.601 100.130,170.917 100.696,171.303 101.294 C 171.689 101.891,172.005 102.466,172.005 102.572 C 172.006 102.839,172.732 103.643,173.095 103.778 C 173.260 103.839,173.576 104.165,173.797 104.503 C 174.189 105.102,174.756 105.485,175.251 105.485 C 175.386 105.485,175.876 105.693,176.340 105.947 C 178.636 107.206,178.265 107.131,182.185 107.142 C 185.857 107.152,186.531 107.081,186.977 106.635 C 187.524 106.089,188.574 105.485,188.979 105.485 C 189.526 105.485,190.039 105.221,190.698 104.603 C 190.987 104.331,191.520 103.838,191.882 103.507 C 192.244 103.175,192.541 102.791,192.541 102.652 C 192.541 102.514,192.774 102.127,193.060 101.792 C 194.049 100.635,193.051 99.758,190.838 99.840 C 189.636 99.884,189.540 99.936,188.855 100.921 C 188.288 101.737,188.197 101.817,187.275 102.307 C 186.841 102.538,186.327 102.858,186.134 103.017 C 185.277 103.725,184.821 103.817,182.202 103.817 C 179.813 103.817,179.593 103.789,178.938 103.397 C 178.552 103.166,177.802 102.742,177.271 102.454 C 175.868 101.694,174.814 100.232,174.814 99.047 C 174.814 98.910,174.650 98.466,174.450 98.061 C 174.069 97.290,173.777 94.381,173.994 93.519 C 174.058 93.264,174.401 92.922,174.852 92.664 L 175.603 92.233 184.693 92.146 C 192.507 92.070,193.808 92.021,193.964 91.795 C 194.469 91.060,193.886 83.837,193.262 83.107 C 193.010 82.811,192.663 82.147,191.843 80.386 C 191.776 80.241,191.481 79.965,191.189 79.772 C 190.897 79.579,190.486 79.161,190.277 78.844 C 190.067 78.527,189.682 78.180,189.419 78.073 C 189.157 77.967,188.706 77.780,188.416 77.658 C 188.126 77.536,187.582 77.309,187.205 77.154 C 186.829 76.999,186.434 76.767,186.328 76.639 C 185.821 76.030,180.307 75.747,178.489 76.238 M241.904 76.261 C 241.628 76.574,241.617 78.352,241.888 78.858 C 242.321 79.667,242.398 79.684,245.544 79.684 C 248.445 79.684,249.982 79.875,250.379 80.286 C 250.478 80.389,250.735 80.723,250.949 81.028 L 251.338 81.581 251.338 91.523 C 251.338 104.411,251.890 103.240,245.752 103.399 C 240.262 103.541,240.113 103.601,240.108 105.692 C 240.104 107.379,238.951 107.241,252.974 107.230 C 267.252 107.219,266.494 107.298,266.573 105.800 C 266.624 104.829,266.603 104.778,265.893 104.089 L 265.162 103.379 261.408 103.379 L 257.654 103.379 257.111 102.896 C 256.026 101.931,256.077 102.619,256.077 88.925 L 256.077 76.384 255.524 76.191 C 254.623 75.877,242.187 75.940,241.904 76.261 M275.867 76.243 C 275.578 76.461,275.559 77.401,275.559 91.585 L 275.559 106.694 275.950 106.967 C 276.431 107.304,278.436 107.334,279.070 107.013 L 279.509 106.791 279.596 96.441 C 279.684 86.124,279.685 86.088,280.079 85.351 C 280.296 84.945,280.474 84.488,280.474 84.335 C 280.474 83.405,282.242 81.279,283.301 80.937 C 285.256 80.305,287.911 79.890,288.094 80.187 C 288.146 80.271,288.526 80.387,288.938 80.444 C 291.315 80.776,292.427 81.218,292.994 82.055 C 293.203 82.364,293.598 82.939,293.872 83.332 C 294.590 84.364,294.677 85.838,294.684 97.091 C 294.692 108.354,294.479 107.333,296.788 107.195 C 297.613 107.146,298.506 107.005,298.771 106.882 L 299.254 106.657 299.253 97.515 C 299.251 87.160,298.985 83.952,297.922 81.477 C 297.786 81.160,297.674 80.759,297.674 80.586 C 297.674 80.414,297.536 80.145,297.367 79.990 C 296.609 79.295,296.160 78.817,295.878 78.404 C 295.711 78.158,295.276 77.867,294.913 77.756 C 293.906 77.448,292.637 76.907,292.253 76.622 C 290.830 75.567,285.828 75.787,284.160 76.977 C 282.896 77.879,282.081 78.280,281.514 78.280 C 281.224 78.280,280.815 78.439,280.606 78.634 L 280.226 78.988 280.005 78.590 C 279.884 78.371,279.780 77.955,279.776 77.666 C 279.761 76.796,279.590 76.403,279.134 76.195 C 278.530 75.920,276.248 75.953,275.867 76.243 M318.787 76.266 C 318.380 76.394,317.890 76.645,317.698 76.825 C 317.505 77.004,317.048 77.252,316.682 77.376 C 315.496 77.777,315.156 77.994,314.033 79.067 C 312.488 80.543,311.771 81.568,311.442 82.773 C 310.404 86.564,310.427 86.390,310.361 91.180 C 310.302 95.526,310.319 95.832,310.729 97.587 C 311.389 100.410,311.716 101.530,311.899 101.594 C 311.991 101.626,312.067 101.745,312.067 101.858 C 312.070 102.643,315.895 105.836,316.833 105.836 C 316.965 105.836,317.269 106.016,317.509 106.235 C 318.347 107.001,319.258 107.152,323.036 107.152 C 326.739 107.152,327.019 107.101,327.951 106.246 C 328.286 105.938,329.392 105.469,330.632 105.107 C 330.983 105.004,331.359 104.705,331.597 104.336 C 331.812 104.005,332.245 103.610,332.559 103.459 C 333.583 102.969,334.095 100.898,333.393 100.088 C 332.688 99.275,329.092 100.212,329.092 101.208 C 329.092 101.454,328.241 102.117,327.424 102.508 C 327.135 102.646,326.593 102.998,326.221 103.289 L 325.545 103.817 322.638 103.817 C 320.468 103.817,319.712 103.762,319.658 103.598 C 319.618 103.477,319.477 103.379,319.345 103.379 C 319.213 103.379,319.042 103.273,318.964 103.145 C 318.887 103.016,318.376 102.694,317.828 102.429 C 317.121 102.086,316.754 101.782,316.564 101.381 C 316.416 101.070,316.145 100.679,315.961 100.512 C 314.789 99.452,314.181 93.997,315.113 92.913 C 315.699 92.232,316.587 92.167,325.581 92.145 C 331.024 92.131,333.393 92.065,333.831 91.915 L 334.445 91.704 334.433 89.156 C 334.427 87.755,334.325 86.097,334.206 85.472 C 334.087 84.847,333.906 83.901,333.804 83.370 C 333.593 82.275,333.339 81.646,332.952 81.264 C 332.806 81.119,332.480 80.724,332.228 80.386 C 330.985 78.718,329.950 77.933,328.302 77.408 C 327.916 77.285,327.363 77.012,327.073 76.801 C 325.958 75.989,320.736 75.652,318.787 76.266 M184.076 79.601 C 184.572 79.748,185.080 79.972,185.206 80.098 C 185.333 80.224,185.632 80.377,185.873 80.438 C 187.933 80.961,188.904 82.333,189.565 85.656 L 189.977 87.728 189.400 88.267 C 188.470 89.136,187.957 89.192,181.506 89.130 C 173.982 89.059,173.733 88.968,173.988 86.382 C 174.041 85.835,174.249 85.075,174.449 84.693 C 174.650 84.311,174.814 83.898,174.814 83.777 C 174.814 82.775,175.865 81.371,177.007 80.846 C 177.394 80.669,177.946 80.404,178.236 80.258 C 180.165 79.284,182.229 79.052,184.076 79.601 M324.603 79.599 C 325.079 79.743,325.592 79.967,325.744 80.095 C 325.896 80.223,326.297 80.436,326.634 80.567 C 327.761 81.004,328.298 81.374,328.690 81.979 C 328.903 82.310,329.222 82.738,329.399 82.931 C 330.520 84.159,330.883 87.606,329.979 88.451 C 328.811 89.542,316.058 89.493,315.113 88.394 C 314.198 87.331,314.851 83.456,316.139 82.296 C 316.313 82.140,316.455 81.937,316.455 81.844 C 316.455 81.540,317.231 80.946,318.034 80.636 C 318.469 80.469,318.951 80.224,319.105 80.092 C 319.939 79.381,322.985 79.108,324.603 79.599 " stroke="none" fill="#f7efe6" fill-rule="evenodd"></path><path id="path1" d="M111.214 62.377 C 110.127 62.635,108.982 63.692,108.254 65.110 C 107.241 67.083,109.200 70.051,111.490 70.012 C 112.586 69.994,112.589 69.992,111.979 69.779 C 110.308 69.194,110.225 69.135,109.781 68.196 C 108.553 65.599,110.310 62.524,113.059 62.463 C 113.855 62.445,113.917 62.422,113.471 62.308 C 112.746 62.124,112.211 62.140,111.214 62.377 M251.918 62.341 C 250.574 62.586,248.899 64.367,248.846 65.605 C 248.706 68.877,249.760 70.055,252.778 70.002 L 254.410 69.973 253.069 69.870 C 251.602 69.758,251.463 69.671,250.196 68.077 C 249.191 66.812,249.495 64.239,250.650 64.239 C 250.728 64.239,250.931 64.003,251.102 63.714 C 251.493 63.051,252.746 62.454,253.778 62.439 C 254.339 62.430,254.472 62.387,254.228 62.292 C 253.782 62.118,253.055 62.133,251.918 62.341 M201.949 66.344 C 201.018 66.940,200.845 68.258,201.498 69.782 C 202.197 71.413,202.262 71.434,206.549 71.435 C 210.508 71.435,210.741 71.476,211.452 72.296 L 211.847 72.751 211.847 86.166 C 211.847 99.317,211.867 99.879,212.387 101.185 C 212.463 101.378,212.623 101.852,212.740 102.238 C 213.284 104.022,213.972 104.960,215.598 106.137 C 216.093 106.496,216.538 106.842,216.586 106.905 C 217.206 107.719,217.623 107.767,223.782 107.729 L 229.662 107.693 224.309 107.598 C 218.436 107.494,218.047 107.422,217.148 106.280 C 216.956 106.036,216.739 105.836,216.666 105.836 C 216.429 105.836,215.018 104.701,215.012 104.506 C 215.009 104.402,214.802 104.126,214.552 103.892 C 213.192 102.620,213.211 102.854,213.093 86.688 C 212.981 71.331,213.034 72.169,212.118 71.395 C 211.803 71.129,211.299 71.091,207.986 71.084 C 202.765 71.073,202.194 70.771,202.194 68.018 C 202.194 66.166,201.750 66.273,209.891 66.163 L 216.849 66.068 209.653 66.044 C 202.928 66.021,202.424 66.041,201.949 66.344 M73.298 66.511 C 71.533 66.755,71.087 67.816,71.082 71.786 C 71.077 75.395,71.207 75.296,66.445 75.296 C 63.444 75.296,63.113 75.357,62.352 76.051 C 61.565 76.767,61.967 79.530,62.993 80.459 C 63.240 80.682,63.961 80.772,66.448 80.892 C 69.880 81.058,70.834 81.293,70.985 82.011 C 71.031 82.227,71.108 86.670,71.157 91.882 C 71.260 103.008,71.234 102.793,72.722 104.601 C 73.280 105.280,73.815 105.836,73.910 105.836 C 74.005 105.836,74.178 105.914,74.294 106.010 C 76.492 107.817,76.293 107.772,81.878 107.733 L 86.441 107.701 82.229 107.588 C 77.839 107.470,76.406 107.172,76.073 106.305 C 76.026 106.181,75.552 105.852,75.020 105.574 C 74.359 105.228,73.966 104.886,73.780 104.494 C 73.631 104.178,73.300 103.712,73.046 103.458 C 72.193 102.605,72.153 102.087,72.143 91.795 L 72.134 82.229 71.629 81.351 L 71.124 80.474 67.984 80.474 L 64.844 80.474 64.234 79.904 C 63.899 79.591,63.535 79.334,63.426 79.334 C 62.838 79.331,62.619 76.446,63.186 76.169 C 64.042 75.752,64.980 75.647,67.867 75.647 L 71.032 75.647 71.584 75.119 L 72.137 74.591 72.137 71.636 C 72.137 67.757,72.235 67.548,74.395 66.868 C 75.007 66.675,75.095 66.601,74.833 66.498 C 74.459 66.351,74.449 66.351,73.298 66.511 M78.017 75.355 C 78.434 75.689,87.994 75.799,88.197 75.472 C 88.268 75.356,86.594 75.296,83.307 75.296 C 80.558 75.296,78.164 75.246,77.987 75.185 C 77.705 75.087,77.708 75.108,78.017 75.355 M101.467 75.486 C 100.246 75.726,100.044 76.014,100.044 77.513 C 100.044 80.420,100.583 80.761,105.405 80.902 C 108.634 80.997,108.766 81.015,109.300 81.439 L 109.853 81.878 109.863 91.562 L 109.873 101.247 109.218 101.786 L 108.564 102.326 104.660 102.326 C 99.346 102.326,98.469 102.825,98.465 105.853 C 98.463 107.811,98.194 107.774,112.167 107.725 L 124.002 107.684 112.330 107.594 L 100.658 107.503 100.176 107.077 C 99.472 106.455,99.509 105.243,100.275 103.817 L 100.842 102.764 105.401 102.677 C 111.931 102.551,111.275 103.782,111.276 91.656 C 111.277 79.419,111.694 80.359,106.334 80.514 C 103.223 80.604,102.891 80.586,102.664 80.307 C 102.526 80.139,102.078 79.626,101.667 79.166 C 100.982 78.399,100.921 78.253,100.921 77.368 L 100.921 76.405 101.624 76.174 C 102.010 76.046,102.326 75.876,102.326 75.795 C 102.326 75.714,105.149 75.646,108.600 75.645 C 112.716 75.643,114.784 75.583,114.612 75.472 C 114.284 75.260,102.554 75.273,101.467 75.486 M134.055 75.636 C 132.759 76.284,132.865 74.859,132.865 91.576 L 132.865 106.652 133.260 107.012 C 133.922 107.615,134.378 107.768,135.443 107.743 L 136.463 107.720 135.636 107.604 C 135.126 107.533,134.638 107.328,134.363 107.070 L 133.918 106.652 133.918 91.581 L 133.918 76.509 134.354 76.073 C 134.730 75.697,134.968 75.632,136.090 75.598 C 137.664 75.551,137.457 75.300,135.849 75.306 C 135.096 75.309,134.486 75.421,134.055 75.636 M141.553 75.554 C 141.071 75.674,140.360 75.908,139.974 76.073 L 139.272 76.373 139.686 76.712 C 140.201 77.134,140.673 77.145,140.973 76.744 C 141.487 76.056,142.601 75.646,144.033 75.618 C 144.888 75.602,145.276 75.541,145.060 75.457 C 144.535 75.252,142.544 75.307,141.553 75.554 M152.476 75.512 C 151.883 75.636,151.391 75.910,150.783 76.457 C 150.312 76.880,149.820 77.230,149.689 77.233 C 149.385 77.241,148.505 77.739,148.781 77.747 C 148.895 77.751,149.114 77.880,149.269 78.034 C 149.748 78.513,151.821 77.298,151.821 76.539 C 151.821 76.434,151.938 76.349,152.080 76.349 C 152.222 76.349,152.598 76.192,152.914 75.999 C 153.242 75.799,153.827 75.641,154.278 75.630 C 154.713 75.620,155.265 75.549,155.507 75.472 C 156.159 75.263,153.503 75.298,152.476 75.512 M178.763 75.486 C 177.377 75.680,176.387 76.002,175.954 76.400 C 175.761 76.578,175.327 76.843,174.989 76.990 C 174.651 77.137,174.206 77.349,173.999 77.461 C 173.321 77.830,171.746 79.404,171.248 80.211 C 170.980 80.645,170.567 81.268,170.332 81.594 C 168.163 84.597,168.538 99.745,170.844 102.334 C 171.097 102.617,171.303 102.931,171.303 103.032 C 171.303 103.420,173.710 105.618,174.638 106.077 C 175.169 106.339,175.851 106.710,176.154 106.901 C 177.287 107.617,178.453 107.768,182.589 107.736 L 186.485 107.706 182.975 107.593 C 179.288 107.475,178.817 107.387,177.183 106.506 C 176.066 105.903,175.388 105.578,174.726 105.325 C 174.436 105.215,174.018 104.846,173.797 104.507 C 173.576 104.167,173.260 103.839,173.095 103.778 C 172.732 103.643,172.006 102.839,172.005 102.572 C 172.005 102.466,171.689 101.891,171.303 101.294 C 170.917 100.696,170.601 100.130,170.601 100.036 C 170.601 99.941,170.527 99.726,170.437 99.559 C 169.769 98.319,169.757 85.261,170.422 83.633 C 170.501 83.440,170.662 83.025,170.780 82.712 C 170.898 82.398,171.056 82.141,171.131 82.141 C 171.205 82.141,171.514 81.628,171.816 81.001 C 172.129 80.354,172.573 79.730,172.844 79.558 C 173.393 79.209,173.936 78.647,173.936 78.427 C 173.936 78.344,174.627 77.947,175.472 77.543 C 176.316 77.140,177.284 76.644,177.622 76.440 C 178.623 75.838,179.829 75.645,182.799 75.611 C 184.689 75.590,185.349 75.537,184.818 75.451 C 183.769 75.280,180.083 75.302,178.763 75.486 M241.917 75.543 C 240.512 76.322,240.240 77.338,240.978 79.058 C 241.695 80.731,241.688 80.729,246.006 80.902 C 249.766 81.052,249.809 81.058,250.220 81.502 L 250.636 81.950 250.632 91.568 C 250.629 100.416,250.604 101.214,250.325 101.556 C 249.855 102.133,249.430 102.193,245.012 102.307 C 240.322 102.428,240.240 102.451,239.604 103.803 C 238.970 105.153,239.065 106.747,239.815 107.319 L 240.402 107.767 252.935 107.726 L 265.467 107.686 253.532 107.591 C 239.431 107.479,240.113 107.574,240.108 105.716 C 240.104 104.412,240.305 104.040,241.405 103.310 L 242.383 102.660 246.308 102.686 C 250.496 102.714,250.776 102.665,251.150 101.844 C 251.277 101.566,251.338 98.172,251.338 91.446 L 251.338 81.461 250.837 80.968 L 250.336 80.474 247.020 80.474 C 243.054 80.474,242.616 80.363,242.058 79.213 C 241.542 78.153,241.547 76.686,242.068 76.087 L 242.450 75.647 248.079 75.637 C 251.175 75.632,254.024 75.562,254.410 75.482 C 254.830 75.395,252.542 75.335,248.706 75.334 C 244.019 75.331,242.197 75.388,241.917 75.543 M275.735 75.590 C 274.388 76.171,274.506 74.641,274.506 91.532 C 274.506 105.694,274.526 106.681,274.814 106.998 C 275.326 107.562,276.041 107.768,277.367 107.733 L 278.631 107.700 277.578 107.636 C 276.732 107.584,276.430 107.481,276.042 107.110 L 275.559 106.648 275.559 91.578 L 275.559 76.509 275.990 76.078 C 276.352 75.717,276.590 75.647,277.472 75.647 C 278.050 75.647,278.571 75.568,278.631 75.472 C 278.804 75.192,276.432 75.289,275.735 75.590 M285.652 75.493 C 284.135 75.766,284.047 75.803,283.175 76.523 C 282.296 77.249,281.916 77.370,281.576 77.030 C 281.430 76.884,281.417 77.002,281.525 77.483 C 281.766 78.550,281.858 78.532,284.160 76.955 C 285.907 75.758,286.321 75.645,289.086 75.616 C 290.762 75.599,291.241 75.552,290.742 75.454 C 289.811 75.272,286.754 75.295,285.652 75.493 M318.714 75.555 C 318.010 75.682,317.196 75.984,316.650 76.321 C 316.153 76.626,315.669 76.876,315.574 76.876 C 315.479 76.876,315.401 76.936,315.401 77.010 C 315.401 77.084,315.101 77.274,314.734 77.433 C 313.552 77.945,311.853 79.829,311.010 81.561 C 310.597 82.411,310.208 83.146,310.146 83.194 C 309.585 83.633,309.205 92.807,309.566 97.190 C 309.844 100.556,312.173 104.457,314.665 105.728 C 315.022 105.910,315.340 106.127,315.372 106.211 C 315.404 106.294,315.500 106.362,315.584 106.362 C 315.668 106.362,316.116 106.583,316.578 106.853 C 317.820 107.577,318.969 107.770,321.865 107.740 L 324.441 107.714 322.185 107.579 C 320.945 107.505,319.681 107.348,319.377 107.232 C 318.174 106.771,317.859 106.623,317.859 106.522 C 317.859 106.463,317.523 106.276,317.113 106.105 C 315.966 105.627,315.512 105.413,315.237 105.222 C 314.685 104.837,312.067 102.066,312.067 101.866 C 312.067 101.749,311.991 101.626,311.899 101.594 C 311.716 101.530,311.389 100.410,310.729 97.587 C 310.319 95.832,310.302 95.526,310.361 91.180 C 310.427 86.390,310.404 86.564,311.442 82.773 C 312.026 80.637,314.995 77.648,317.013 77.164 C 317.271 77.102,317.589 76.945,317.718 76.816 C 318.612 75.922,320.038 75.610,323.293 75.596 C 325.194 75.588,325.923 75.539,325.406 75.453 C 324.202 75.254,320.023 75.317,318.714 75.555 M141.729 79.647 L 141.202 79.947 141.968 80.002 C 142.550 80.044,142.754 80.138,142.822 80.397 C 142.871 80.584,142.980 80.737,143.066 80.737 C 143.151 80.737,143.221 80.836,143.221 80.957 C 143.221 81.077,143.418 81.405,143.659 81.685 C 144.524 82.691,144.525 82.706,144.582 95.217 L 144.636 106.977 145.242 107.372 C 145.672 107.652,146.091 107.761,146.685 107.748 L 147.521 107.730 146.823 107.546 C 145.498 107.196,145.600 108.190,145.502 94.616 C 145.407 81.401,145.472 82.193,144.398 80.968 C 142.822 79.168,142.687 79.101,141.729 79.647 M152.874 79.644 L 152.084 79.928 152.866 80.066 C 153.588 80.194,153.900 80.429,154.582 81.360 C 155.260 82.286,155.242 81.955,155.289 94.340 C 155.314 100.904,155.372 106.443,155.419 106.649 C 155.541 107.190,156.880 107.773,157.918 107.738 C 158.627 107.715,158.661 107.699,158.140 107.638 C 157.794 107.597,157.314 107.365,157.043 107.107 L 156.560 106.648 156.560 95.087 C 156.560 82.907,156.532 82.431,155.756 81.528 C 155.523 81.256,155.331 80.967,155.331 80.886 C 155.331 80.679,154.002 79.330,153.816 79.347 C 153.732 79.355,153.308 79.488,152.874 79.644 M181.922 79.928 C 181.825 79.963,181.391 80.095,180.957 80.220 C 180.522 80.345,180.088 80.524,179.991 80.618 C 179.877 80.729,179.938 80.744,180.167 80.661 C 181.205 80.282,182.250 80.263,183.479 80.600 C 184.167 80.789,184.967 80.988,185.257 81.042 C 186.001 81.181,186.992 81.846,187.467 82.526 C 187.690 82.846,187.916 83.146,187.969 83.194 C 188.490 83.669,189.045 87.595,188.646 87.989 C 188.150 88.479,187.549 88.548,182.887 88.646 L 178.061 88.749 183.510 88.736 L 188.959 88.723 189.468 88.214 L 189.977 87.705 189.567 85.669 C 188.891 82.312,188.239 81.332,186.176 80.567 C 185.863 80.452,185.464 80.280,185.288 80.187 C 184.967 80.016,182.251 79.807,181.922 79.928 M322.561 80.016 C 321.355 80.193,321.330 80.386,322.512 80.386 C 323.579 80.386,323.661 80.405,326.108 81.218 C 327.535 81.692,327.616 81.747,327.983 82.498 C 328.194 82.929,328.441 83.367,328.531 83.470 C 329.123 84.146,329.843 87.774,329.436 88.025 C 328.711 88.473,326.995 88.623,322.524 88.629 C 319.926 88.633,317.837 88.672,317.881 88.716 C 317.926 88.761,320.565 88.808,323.746 88.822 L 329.530 88.845 330.013 88.410 C 330.583 87.895,330.644 87.046,330.257 85.017 C 330.008 83.711,329.924 83.507,329.399 82.931 C 329.222 82.738,328.900 82.304,328.683 81.966 C 327.823 80.626,324.852 79.680,322.561 80.016 M78.763 80.690 C 78.401 80.727,78.104 80.813,78.104 80.879 C 78.104 81.043,88.221 80.860,88.387 80.693 C 88.518 80.562,80.013 80.559,78.763 80.690 M286.779 80.820 L 285.827 80.990 287.758 81.115 C 290.847 81.314,291.883 81.640,292.240 82.521 C 292.370 82.843,292.521 83.146,292.575 83.194 C 292.629 83.243,292.761 83.480,292.868 83.721 C 293.054 84.136,293.144 84.355,293.616 85.528 C 293.754 85.873,293.813 89.131,293.813 96.438 L 293.813 106.858 294.353 107.312 C 294.839 107.721,295.028 107.764,296.240 107.742 L 297.587 107.718 296.446 107.538 C 294.569 107.243,294.731 108.301,294.647 95.778 C 294.568 84.045,294.584 84.247,293.601 82.888 C 292.646 81.568,292.134 81.147,291.319 81.012 C 289.694 80.742,287.686 80.657,286.779 80.820 M284.072 81.272 C 283.827 81.383,283.934 81.399,284.423 81.324 C 284.809 81.265,285.158 81.188,285.198 81.153 C 285.349 81.020,284.409 81.119,284.072 81.272 M176.120 92.773 C 175.932 92.925,175.897 92.984,176.042 92.905 C 176.187 92.825,179.820 92.719,184.116 92.669 L 191.926 92.577 184.193 92.537 C 177.379 92.501,176.420 92.530,176.120 92.773 M321.676 92.628 C 323.824 92.656,327.339 92.656,329.487 92.628 C 331.634 92.600,329.877 92.577,325.581 92.577 C 321.286 92.577,319.528 92.600,321.676 92.628 M190.478 98.715 C 189.694 98.875,189.446 99.033,188.811 99.773 C 187.402 101.415,187.214 101.552,184.829 102.664 C 184.234 102.942,183.673 103.032,182.459 103.045 C 180.154 103.070,181.255 103.339,183.753 103.361 C 185.476 103.376,185.812 103.333,186.123 103.053 C 186.322 102.874,186.841 102.538,187.275 102.307 C 188.197 101.817,188.288 101.737,188.855 100.921 C 189.446 100.072,189.664 99.868,189.983 99.868 C 190.135 99.868,190.259 99.789,190.259 99.693 C 190.259 99.596,190.358 99.516,190.478 99.513 C 190.599 99.511,190.895 99.355,191.136 99.166 C 191.399 98.961,191.852 98.822,192.263 98.819 C 192.641 98.817,192.917 98.787,192.877 98.752 C 192.669 98.571,191.288 98.550,190.478 98.715 M330.163 99.155 C 329.490 99.569,328.733 100.237,328.273 100.822 C 327.852 101.360,327.409 101.799,327.289 101.799 C 327.170 101.799,326.502 102.075,325.806 102.413 C 324.666 102.966,324.385 103.029,322.998 103.043 C 320.856 103.064,321.881 103.356,324.226 103.393 C 325.676 103.416,326.043 103.365,326.432 103.090 C 326.688 102.908,327.135 102.646,327.424 102.507 C 328.229 102.123,329.092 101.455,329.092 101.217 C 329.092 101.100,329.408 100.809,329.794 100.570 C 330.180 100.332,330.496 100.073,330.496 99.994 C 330.496 99.583,331.396 98.991,332.024 98.988 C 332.972 98.985,333.573 98.807,333.275 98.618 C 332.650 98.222,331.302 98.454,330.163 99.155 M117.676 102.287 C 118.033 102.715,125.160 102.900,125.414 102.488 C 125.474 102.390,123.989 102.326,121.678 102.326 C 118.859 102.326,117.775 102.267,117.591 102.106 C 117.454 101.986,117.492 102.067,117.676 102.287 M81.439 102.505 C 81.777 102.727,88.150 102.710,88.012 102.487 C 87.957 102.398,86.406 102.327,84.544 102.328 C 82.262 102.330,81.261 102.387,81.439 102.505 M221.413 102.501 C 221.547 102.719,229.682 102.719,230.189 102.501 C 230.397 102.412,228.664 102.345,225.922 102.338 C 222.885 102.330,221.342 102.386,221.413 102.501 M258.973 102.501 C 259.040 102.608,260.412 102.677,262.504 102.677 C 264.741 102.677,265.889 102.616,265.818 102.501 C 265.752 102.394,264.380 102.326,262.287 102.326 C 260.050 102.326,258.902 102.386,258.973 102.501 M326.327 107.712 C 326.496 107.756,326.773 107.756,326.942 107.712 C 327.111 107.668,326.972 107.632,326.634 107.632 C 326.297 107.632,326.158 107.668,326.327 107.712 " stroke="none" fill="#dc9db0" fill-rule="evenodd"></path><path id="path2" d="M253.128 62.493 C 252.216 62.691,252.254 62.835,253.218 62.835 C 254.138 62.835,254.330 62.954,255.946 64.529 C 256.588 65.155,256.634 66.789,256.044 68.003 C 255.505 69.113,254.826 69.416,252.883 69.416 C 250.836 69.416,251.175 69.721,253.406 69.886 C 255.500 70.042,256.083 69.821,256.734 68.627 C 256.971 68.192,257.326 67.662,257.524 67.448 C 257.945 66.991,257.872 65.523,257.396 64.873 C 257.247 64.669,256.870 64.129,256.557 63.674 C 255.810 62.585,254.610 62.171,253.128 62.493 M111.891 62.659 C 111.827 62.764,112.037 62.835,112.410 62.835 C 113.243 62.835,114.436 63.217,114.436 63.484 C 114.436 63.601,114.739 64.016,115.110 64.406 C 116.169 65.519,116.471 66.864,115.785 67.404 C 115.561 67.580,115.236 68.040,115.062 68.426 C 114.650 69.340,114.096 69.561,112.428 69.477 C 111.021 69.406,110.931 69.498,112.087 69.826 C 114.138 70.408,115.943 69.728,116.666 68.100 C 117.427 66.389,117.139 64.835,115.815 63.511 L 114.787 62.484 113.393 62.484 C 112.627 62.484,111.951 62.563,111.891 62.659 M203.247 66.296 C 201.871 66.543,203.253 66.603,209.289 66.560 C 213.462 66.531,216.191 66.579,216.476 66.688 L 216.937 66.863 216.937 82.323 C 216.937 98.393,216.988 99.674,217.674 100.896 C 218.801 102.901,220.237 103.365,225.538 103.437 C 231.146 103.512,231.681 103.718,231.681 105.806 C 231.681 107.208,231.968 107.152,224.733 107.152 C 220.409 107.152,218.461 107.209,218.661 107.328 C 218.833 107.430,221.555 107.549,225.186 107.612 L 231.417 107.721 232.032 107.243 C 232.861 106.598,232.971 105.409,232.318 104.136 C 231.447 102.439,231.999 102.581,226.530 102.651 C 223.875 102.686,221.598 102.646,221.470 102.563 C 221.342 102.481,220.851 102.295,220.378 102.149 C 218.485 101.568,218.538 102.130,218.526 82.631 C 218.516 65.139,218.626 66.551,217.254 66.277 C 216.651 66.156,203.929 66.173,203.247 66.296 M73.820 67.056 C 72.484 67.564,72.380 67.815,73.562 67.685 C 74.431 67.589,74.627 67.629,75.208 68.023 C 76.389 68.825,76.349 68.692,76.349 71.828 C 76.349 76.093,76.193 75.998,83.208 75.998 C 89.101 75.998,88.986 75.969,88.986 77.484 C 88.986 78.473,88.939 78.608,88.408 79.123 L 87.829 79.684 83.086 79.684 L 78.343 79.684 77.605 80.316 C 76.291 81.441,76.349 80.973,76.349 90.379 C 76.349 95.285,76.421 99.123,76.522 99.559 C 76.617 99.970,76.735 100.518,76.785 100.776 C 76.934 101.545,77.634 102.216,78.566 102.481 C 79.036 102.615,79.658 102.863,79.947 103.033 C 80.388 103.292,81.030 103.354,83.896 103.414 C 88.212 103.503,88.635 103.718,88.635 105.823 C 88.635 107.284,88.676 107.274,82.689 107.208 C 79.434 107.172,77.656 107.213,77.764 107.321 C 78.015 107.572,87.692 107.776,88.499 107.548 C 89.889 107.154,90.286 105.864,89.528 104.203 C 88.837 102.689,88.783 102.670,84.931 102.610 C 81.551 102.557,80.702 102.474,79.860 102.115 C 79.618 102.012,79.223 101.850,78.982 101.755 C 77.415 101.140,77.433 101.266,77.416 90.783 C 77.398 79.346,76.593 80.567,84.160 80.562 C 90.062 80.559,90.391 80.399,90.391 77.524 C 90.391 75.496,90.778 75.611,84.027 75.637 L 78.340 75.659 77.871 75.190 L 77.402 74.722 77.402 71.696 C 77.402 66.913,76.676 65.972,73.820 67.056 M202.626 70.195 C 203.063 70.902,204.096 71.076,207.878 71.080 C 211.529 71.084,211.542 71.082,211.114 70.746 C 210.726 70.441,210.314 70.401,206.921 70.345 C 204.852 70.310,203.008 70.212,202.823 70.126 C 202.570 70.009,202.521 70.026,202.626 70.195 M135.366 75.600 C 134.176 75.707,134.504 75.998,135.816 75.998 C 137.085 75.998,137.779 76.357,137.780 77.014 C 137.780 77.179,137.972 77.538,138.208 77.812 L 138.635 78.308 139.505 77.739 L 140.376 77.169 139.772 76.759 C 139.440 76.534,139.020 76.349,138.840 76.349 C 138.659 76.349,138.484 76.267,138.450 76.167 C 138.369 75.922,137.096 75.482,136.551 75.510 C 136.310 75.523,135.777 75.563,135.366 75.600 M143.366 75.647 C 141.844 75.785,141.937 75.998,143.518 75.998 C 145.154 75.998,145.507 76.178,147.082 77.813 C 148.100 78.869,148.517 78.976,149.150 78.343 C 149.461 78.032,149.270 77.832,148.486 77.646 C 148.245 77.589,147.652 77.121,147.170 76.607 C 146.200 75.574,145.663 75.439,143.366 75.647 M154.248 75.627 C 152.733 75.794,152.819 75.998,154.404 75.998 C 155.203 75.998,156.004 76.095,156.247 76.221 C 156.734 76.474,158.666 78.329,158.666 78.544 C 158.666 78.622,158.867 78.949,159.113 79.271 C 160.131 80.607,160.117 80.415,160.200 94.106 L 160.275 106.686 159.829 106.978 C 159.499 107.195,159.089 107.255,158.249 107.211 C 156.808 107.136,156.971 107.493,158.455 107.661 C 159.582 107.788,160.459 107.571,161.079 107.010 L 161.474 106.652 161.473 95.318 C 161.472 88.689,161.399 83.511,161.297 82.843 C 160.850 79.922,160.302 78.546,159.179 77.528 C 158.704 77.097,158.315 76.689,158.315 76.622 C 158.315 75.881,156.332 75.396,154.248 75.627 M181.395 75.677 C 179.060 75.807,178.201 75.947,178.030 76.224 C 177.954 76.347,178.028 76.360,178.251 76.263 C 179.423 75.753,186.121 76.057,186.341 76.630 C 186.387 76.750,186.754 76.980,187.157 77.140 C 187.560 77.300,188.126 77.532,188.416 77.655 C 188.706 77.779,189.157 77.967,189.419 78.073 C 189.682 78.180,190.067 78.527,190.277 78.844 C 190.486 79.161,190.897 79.579,191.189 79.772 C 191.481 79.965,191.776 80.241,191.843 80.386 C 192.663 82.147,193.010 82.811,193.262 83.107 C 193.886 83.837,194.469 91.060,193.964 91.795 C 193.808 92.021,192.507 92.070,184.693 92.146 L 175.603 92.233 174.852 92.664 C 174.401 92.922,174.058 93.264,173.994 93.519 C 173.777 94.381,174.069 97.290,174.450 98.061 C 174.650 98.466,174.814 98.910,174.814 99.047 C 174.814 100.232,175.868 101.694,177.271 102.454 C 177.802 102.742,178.552 103.166,178.938 103.397 C 179.763 103.891,184.743 104.051,185.195 103.598 C 185.371 103.423,185.065 103.378,183.668 103.378 C 181.718 103.377,181.008 103.227,179.440 102.485 C 178.847 102.204,178.301 101.975,178.228 101.975 C 177.950 101.975,176.920 101.069,176.920 100.825 C 176.920 100.685,176.853 100.570,176.772 100.570 C 176.602 100.570,175.988 99.366,175.705 98.480 C 175.600 98.150,175.464 96.884,175.402 95.664 L 175.290 93.448 175.872 92.958 L 176.454 92.468 185.288 92.516 C 196.016 92.575,195.058 92.826,195.140 89.933 C 195.253 85.934,194.638 82.490,193.571 81.148 C 193.285 80.788,192.927 80.232,192.776 79.913 C 192.624 79.594,192.445 79.333,192.376 79.333 C 192.308 79.333,191.842 78.951,191.342 78.483 C 190.841 78.016,190.115 77.529,189.729 77.401 C 189.342 77.274,188.731 76.920,188.370 76.615 C 187.260 75.676,185.545 75.446,181.395 75.677 M248.273 75.595 C 244.785 75.629,242.419 75.721,242.314 75.825 C 242.201 75.939,244.340 75.998,248.557 75.998 C 252.762 75.998,255.162 76.065,255.524 76.191 L 256.077 76.384 256.077 88.925 C 256.077 102.619,256.026 101.931,257.111 102.896 L 257.654 103.379 261.408 103.379 L 265.162 103.379 265.893 104.089 C 266.603 104.778,266.624 104.829,266.573 105.800 C 266.495 107.295,267.216 107.216,253.269 107.245 C 246.128 107.260,241.454 107.332,241.757 107.423 C 242.127 107.534,262.833 107.680,266.732 107.599 C 267.917 107.575,268.401 105.705,267.656 104.023 C 267.038 102.624,267.222 102.677,262.945 102.677 C 260.847 102.677,259.056 102.607,258.964 102.522 C 258.873 102.437,258.518 102.279,258.177 102.170 C 256.897 101.762,256.955 102.404,256.955 88.679 C 256.955 76.564,256.950 76.398,256.596 75.989 C 256.170 75.498,256.488 75.513,248.273 75.595 M277.446 75.597 C 275.888 75.684,275.916 75.998,277.482 75.998 C 279.349 75.998,279.753 76.292,279.776 77.666 C 279.780 77.955,279.884 78.371,280.005 78.590 L 280.226 78.988 280.606 78.634 C 280.815 78.439,281.149 78.280,281.347 78.280 C 281.651 78.280,281.692 78.202,281.602 77.797 C 281.158 75.806,280.446 75.429,277.446 75.597 M287.846 75.661 C 286.928 75.717,285.961 75.854,285.695 75.964 C 285.086 76.218,285.057 76.400,285.663 76.169 C 286.785 75.743,291.504 76.067,292.253 76.622 C 292.660 76.924,293.847 77.429,294.913 77.756 C 295.276 77.867,295.711 78.158,295.878 78.404 C 296.160 78.817,296.609 79.295,297.367 79.990 C 297.536 80.145,297.674 80.414,297.674 80.586 C 297.674 80.759,297.786 81.160,297.922 81.477 C 298.985 83.952,299.251 87.160,299.253 97.515 L 299.254 106.657 298.771 106.882 C 298.506 107.005,297.578 107.151,296.709 107.206 L 295.129 107.305 296.446 107.522 C 298.617 107.881,299.056 107.842,299.630 107.242 L 300.132 106.717 300.117 97.369 C 300.109 92.228,300.046 86.757,299.976 85.213 L 299.850 82.405 299.157 81.088 C 298.324 79.505,298.368 79.566,297.089 78.267 C 296.525 77.695,295.953 77.227,295.816 77.227 C 295.680 77.227,295.568 77.148,295.568 77.051 C 295.568 76.955,295.442 76.876,295.289 76.876 C 295.135 76.876,294.814 76.722,294.574 76.534 C 293.593 75.762,291.225 75.455,287.846 75.661 M321.251 75.638 C 318.822 75.802,319.410 75.998,322.329 75.998 C 325.261 75.998,326.186 76.155,327.073 76.801 C 327.363 77.012,327.916 77.285,328.302 77.408 C 329.950 77.933,330.985 78.718,332.228 80.386 C 332.480 80.724,332.806 81.119,332.952 81.264 C 333.339 81.646,333.593 82.275,333.804 83.370 C 333.906 83.901,334.087 84.847,334.206 85.472 C 334.325 86.097,334.427 87.755,334.433 89.156 L 334.445 91.704 333.831 91.915 C 333.393 92.065,331.024 92.131,325.581 92.145 C 316.587 92.167,315.699 92.232,315.113 92.913 C 314.181 93.997,314.789 99.452,315.961 100.512 C 316.145 100.679,316.416 101.070,316.564 101.381 C 316.754 101.782,317.121 102.086,317.828 102.429 C 318.376 102.694,318.887 103.016,318.964 103.145 C 319.042 103.273,319.213 103.379,319.345 103.379 C 319.477 103.379,319.618 103.477,319.658 103.598 C 319.756 103.894,325.468 103.913,325.762 103.619 C 325.910 103.471,325.514 103.413,324.211 103.393 C 322.048 103.359,322.026 103.352,318.290 101.699 C 317.690 101.434,317.423 101.014,316.624 99.079 C 315.743 96.943,315.379 93.695,315.972 93.254 C 316.913 92.554,317.984 92.475,326.245 92.497 C 330.658 92.510,334.444 92.514,334.656 92.508 C 334.869 92.502,335.255 92.285,335.513 92.027 L 335.984 91.556 335.887 88.648 C 335.780 85.412,335.543 83.874,335.043 83.172 C 334.859 82.913,334.708 82.633,334.708 82.550 C 334.708 81.362,331.919 78.126,330.169 77.283 C 329.625 77.021,328.943 76.635,328.653 76.424 C 327.646 75.693,324.854 75.396,321.251 75.638 M64.239 75.823 C 63.909 76.036,68.568 76.044,69.592 75.833 C 70.081 75.732,69.414 75.682,67.398 75.670 C 65.793 75.660,64.385 75.728,64.239 75.823 M102.326 75.823 C 102.326 75.936,104.479 76.000,108.425 76.004 C 113.218 76.008,114.590 76.059,114.831 76.243 C 115.119 76.461,115.138 77.273,115.138 88.894 C 115.138 104.577,114.683 103.379,120.636 103.379 C 125.535 103.379,126.196 103.667,126.196 105.806 C 126.196 107.371,127.310 107.253,113.016 107.200 C 101.457 107.156,99.906 107.190,100.642 107.473 C 101.040 107.625,125.898 107.643,126.283 107.491 C 127.283 107.096,127.584 105.441,126.919 103.993 C 126.280 102.603,126.343 102.619,121.921 102.661 L 117.996 102.699 117.269 101.873 L 116.542 101.048 116.542 88.710 L 116.542 76.373 116.033 76.010 C 115.460 75.603,102.326 75.423,102.326 75.823 M139.712 79.384 C 139.471 79.506,139.246 79.756,139.210 79.939 C 139.175 80.123,139.029 80.390,138.886 80.533 C 138.743 80.676,138.416 81.116,138.159 81.511 L 137.692 82.229 137.604 94.566 C 137.504 108.635,137.705 107.285,135.723 107.200 C 134.229 107.136,134.278 107.403,135.799 107.612 C 136.879 107.761,137.888 107.583,138.598 107.118 L 139.008 106.849 139.012 95.592 C 139.014 89.401,139.084 83.861,139.168 83.281 C 139.334 82.135,140.419 80.035,140.845 80.035 C 141.152 80.035,142.165 79.463,142.167 79.289 C 142.168 79.070,140.181 79.147,139.712 79.384 M150.999 79.334 C 150.788 79.419,150.519 79.671,150.401 79.894 C 150.283 80.116,149.935 80.595,149.626 80.957 C 148.727 82.014,148.661 83.015,148.661 95.704 L 148.662 106.898 148.211 107.069 C 147.964 107.163,147.352 107.248,146.851 107.257 L 145.941 107.275 146.977 107.546 C 147.849 107.774,148.114 107.781,148.645 107.590 C 149.980 107.110,149.890 108.011,149.894 95.146 C 149.899 82.567,149.881 82.806,150.945 81.174 C 151.618 80.141,151.768 80.014,152.655 79.735 C 153.496 79.470,153.571 79.412,153.207 79.310 C 152.604 79.141,151.446 79.154,150.999 79.334 M102.265 79.803 C 102.439 80.075,102.662 80.356,102.760 80.427 C 102.984 80.588,106.807 80.601,108.288 80.447 L 109.388 80.332 108.972 80.012 C 108.608 79.732,108.188 79.691,105.605 79.688 C 103.847 79.686,102.511 79.608,102.302 79.496 C 101.955 79.310,101.955 79.315,102.265 79.803 M179.552 79.661 C 179.118 79.843,178.526 80.112,178.236 80.258 C 177.946 80.404,177.394 80.669,177.007 80.846 C 175.865 81.371,174.814 82.775,174.814 83.777 C 174.814 83.898,174.650 84.311,174.449 84.693 C 173.602 86.312,173.777 88.028,174.852 88.644 L 175.603 89.074 181.922 89.074 C 185.820 89.074,188.354 89.007,188.536 88.899 C 188.736 88.780,187.382 88.742,184.323 88.783 C 175.385 88.901,175.310 88.877,175.530 85.969 C 175.713 83.547,177.210 81.088,178.501 81.088 C 178.695 81.088,179.189 80.940,179.598 80.758 C 181.266 80.018,181.591 79.947,183.312 79.955 C 184.995 79.962,185.033 79.953,184.453 79.705 C 183.472 79.285,180.514 79.258,179.552 79.661 M242.228 79.421 C 242.176 80.245,243.180 80.474,246.863 80.476 C 248.697 80.478,250.296 80.542,250.417 80.618 C 250.538 80.695,250.636 80.708,250.636 80.647 C 250.636 79.983,249.035 79.684,245.483 79.684 C 243.194 79.684,242.394 79.628,242.328 79.465 C 242.279 79.344,242.234 79.324,242.228 79.421 M320.158 79.610 C 319.734 79.743,319.260 79.960,319.105 80.092 C 318.951 80.224,318.469 80.469,318.034 80.636 C 317.231 80.946,316.455 81.540,316.455 81.844 C 316.455 81.937,316.313 82.140,316.139 82.296 C 314.851 83.456,314.198 87.331,315.113 88.394 C 315.716 89.095,324.957 89.516,328.302 88.994 C 328.837 88.911,327.022 88.848,323.651 88.832 C 318.105 88.806,316.963 88.690,315.972 88.053 C 314.977 87.415,316.853 82.137,318.319 81.447 C 318.740 81.250,319.164 81.088,319.263 81.088 C 319.362 81.088,319.580 81.020,319.748 80.936 C 321.154 80.232,323.274 79.819,324.660 79.978 C 325.847 80.114,325.835 79.958,324.633 79.609 C 323.483 79.275,321.225 79.275,320.158 79.610 M64.370 80.035 C 64.905 80.531,67.464 80.724,69.592 80.429 L 70.645 80.283 69.767 79.991 C 69.156 79.788,68.133 79.684,66.393 79.648 L 63.897 79.596 64.370 80.035 M285.388 80.403 C 283.104 80.924,282.764 81.071,281.953 81.882 C 281.188 82.646,280.474 83.831,280.474 84.335 C 280.474 84.488,280.296 84.945,280.079 85.351 C 279.685 86.088,279.684 86.124,279.596 96.441 L 279.509 106.791 279.070 107.020 C 278.796 107.162,278.154 107.230,277.364 107.200 C 276.363 107.162,276.142 107.197,276.313 107.367 C 276.730 107.783,279.840 107.739,280.417 107.309 L 280.913 106.939 281.000 96.164 C 281.067 88.000,281.141 85.295,281.308 85.005 C 281.428 84.794,281.527 84.477,281.527 84.300 C 281.527 84.007,282.261 82.990,283.362 81.757 C 283.625 81.462,284.036 81.247,284.454 81.184 C 284.823 81.129,285.628 80.995,286.244 80.887 C 286.859 80.779,287.965 80.697,288.701 80.705 C 289.612 80.716,289.927 80.671,289.688 80.566 C 289.495 80.481,289.085 80.405,288.777 80.398 C 288.469 80.392,288.168 80.307,288.109 80.211 C 287.951 79.955,287.080 80.016,285.388 80.403 M290.654 80.913 C 291.254 81.105,291.715 81.105,291.268 80.913 C 291.075 80.830,290.759 80.764,290.566 80.767 C 290.284 80.771,290.301 80.800,290.654 80.913 M191.136 99.162 C 190.895 99.353,190.599 99.511,190.478 99.513 C 190.358 99.516,190.259 99.596,190.259 99.693 C 190.259 99.791,190.637 99.852,191.118 99.831 C 193.031 99.748,193.985 100.711,193.060 101.792 C 192.774 102.127,192.541 102.514,192.541 102.652 C 192.541 102.791,192.244 103.175,191.882 103.507 C 191.520 103.838,190.987 104.331,190.698 104.603 C 190.039 105.221,189.526 105.485,188.979 105.485 C 188.574 105.485,187.524 106.089,186.977 106.635 C 186.534 107.079,185.862 107.152,182.242 107.152 C 179.801 107.152,178.791 107.207,178.994 107.328 C 180.248 108.074,188.111 107.443,188.855 106.536 C 188.903 106.477,189.492 106.198,190.163 105.915 C 193.322 104.586,195.168 101.486,193.997 99.476 C 193.567 98.738,191.902 98.555,191.136 99.162 M332.098 98.978 C 331.408 99.062,331.066 99.203,330.821 99.505 C 330.427 99.992,330.500 100.148,330.996 99.883 C 331.653 99.531,333.011 99.647,333.393 100.088 C 334.095 100.898,333.583 102.969,332.559 103.459 C 332.245 103.610,331.812 104.005,331.597 104.336 C 331.359 104.705,330.983 105.004,330.632 105.107 C 329.392 105.469,328.286 105.938,327.951 106.246 C 327.015 107.104,326.749 107.152,322.917 107.152 C 318.711 107.152,318.540 107.344,322.537 107.577 C 326.700 107.819,327.762 107.671,329.383 106.621 C 330.043 106.193,330.702 105.841,330.847 105.839 C 331.183 105.833,332.232 105.198,332.699 104.716 C 332.898 104.511,333.263 104.186,333.510 103.993 C 333.757 103.800,334.216 103.108,334.528 102.456 C 334.841 101.803,335.161 101.230,335.238 101.183 C 335.372 101.100,335.194 100.378,334.851 99.605 C 334.670 99.199,333.922 98.804,333.401 98.840 C 333.203 98.854,332.617 98.916,332.098 98.978 M250.513 102.519 C 250.381 102.651,249.046 102.705,246.362 102.687 L 242.405 102.661 241.694 103.110 C 240.974 103.564,240.726 103.883,241.290 103.629 C 241.459 103.553,243.471 103.446,245.762 103.391 L 249.927 103.291 250.409 102.808 C 250.675 102.543,250.850 102.326,250.799 102.326 C 250.748 102.326,250.619 102.413,250.513 102.519 M100.638 103.121 C 100.329 103.594,100.435 103.935,100.784 103.586 C 100.931 103.439,102.121 103.378,104.862 103.375 C 108.433 103.371,108.766 103.344,109.171 103.028 L 109.609 102.684 105.270 102.681 L 100.930 102.677 100.638 103.121 " stroke="none" fill="#f8c669" fill-rule="evenodd"></path><path id="path3" d="M110.224 61.811 C 109.420 61.981,108.647 62.655,108.645 63.187 C 108.645 63.332,108.416 63.552,108.136 63.676 C 106.740 64.294,106.747 67.870,108.147 69.180 C 108.420 69.436,108.644 69.718,108.644 69.808 C 108.644 70.617,114.591 70.808,116.071 70.047 C 116.524 69.815,116.893 69.528,116.893 69.410 C 116.893 69.293,117.003 69.105,117.138 68.993 C 117.573 68.632,117.809 66.755,117.602 65.314 C 117.179 62.384,114.198 60.968,110.224 61.811 M250.900 61.793 C 249.742 62.137,249.276 62.531,248.746 63.610 C 247.868 65.399,247.523 66.892,247.899 67.269 C 248.029 67.398,248.311 67.988,248.527 68.579 C 249.210 70.454,249.247 70.470,253.006 70.470 C 256.442 70.470,257.130 70.280,257.130 69.333 C 257.130 68.893,257.545 68.103,257.776 68.101 C 258.850 68.094,259.005 64.878,257.953 64.397 C 257.742 64.300,257.415 63.903,257.227 63.515 C 256.704 62.433,256.358 62.129,255.344 61.859 C 254.316 61.585,251.727 61.547,250.900 61.793 M113.707 62.345 C 115.943 62.757,117.625 65.320,116.973 67.321 C 116.268 69.483,115.342 70.031,112.390 70.031 C 109.988 70.031,109.829 69.953,108.724 68.245 C 107.036 65.636,108.915 62.445,112.310 62.153 C 112.443 62.142,113.072 62.228,113.707 62.345 M254.533 62.379 C 255.894 62.741,255.938 62.769,256.557 63.673 C 256.870 64.129,257.247 64.669,257.396 64.873 C 257.872 65.523,257.945 66.991,257.524 67.448 C 257.326 67.662,256.971 68.192,256.733 68.627 C 255.814 70.308,251.297 70.717,249.831 69.251 C 247.764 67.183,249.069 62.861,251.918 62.341 C 253.233 62.101,253.498 62.105,254.533 62.379 M201.931 65.582 C 200.276 65.980,199.841 66.601,199.948 68.411 C 200.150 71.810,201.039 72.312,206.855 72.312 C 208.716 72.312,210.364 72.360,210.517 72.419 C 210.766 72.515,210.794 73.836,210.794 85.555 C 210.794 100.691,210.878 101.904,211.999 102.918 C 212.188 103.089,212.391 103.440,212.451 103.699 C 212.648 104.546,213.296 105.651,213.665 105.768 C 213.864 105.831,214.385 106.257,214.824 106.715 C 216.326 108.283,215.823 108.205,224.497 108.205 C 232.741 108.205,232.371 108.246,232.881 107.292 C 233.322 106.468,233.065 103.954,232.389 102.492 C 231.966 101.575,231.848 101.557,225.590 101.455 C 221.146 101.383,219.708 101.306,219.535 101.132 C 219.352 100.949,219.295 97.527,219.248 83.810 C 219.184 65.037,219.267 66.422,218.166 65.802 C 217.734 65.559,202.866 65.358,201.931 65.582 M71.786 65.871 C 71.270 66.111,70.908 66.433,70.908 66.650 C 70.908 66.736,70.770 66.958,70.601 67.145 C 69.995 67.817,69.855 68.661,69.855 71.650 L 69.855 74.560 69.302 74.752 C 68.981 74.865,67.436 74.945,65.605 74.945 C 61.654 74.945,61.071 75.269,61.086 77.456 C 61.110 81.055,62.081 81.785,66.860 81.796 C 70.224 81.804,69.855 80.687,69.855 90.860 C 69.855 99.758,69.942 101.111,70.573 101.997 C 70.758 102.256,70.910 102.692,70.912 102.967 C 70.919 103.856,72.021 105.836,72.509 105.836 C 72.584 105.836,72.858 106.033,73.119 106.275 C 73.379 106.516,73.658 106.713,73.739 106.713 C 73.820 106.713,74.171 106.990,74.519 107.328 C 75.422 108.205,75.423 108.205,82.580 108.205 L 89.074 108.205 89.688 107.773 C 91.139 106.752,91.175 104.680,89.776 102.734 C 88.948 101.582,88.862 101.563,83.896 101.436 C 78.915 101.308,78.469 101.232,78.215 100.473 C 78.028 99.912,77.835 82.889,78.008 82.201 L 78.111 81.790 82.978 81.784 C 90.617 81.774,91.099 81.521,91.089 77.531 C 91.082 74.948,91.072 74.945,83.910 74.945 C 79.653 74.945,78.280 74.893,78.143 74.726 C 78.038 74.597,77.938 72.982,77.902 70.821 C 77.819 65.801,77.691 65.633,73.980 65.656 C 73.014 65.662,72.027 65.759,71.786 65.871 M217.171 66.233 C 218.654 66.750,218.516 65.075,218.526 82.622 C 218.536 98.939,218.595 100.647,219.169 101.417 C 219.687 102.111,220.260 102.186,225.948 102.304 L 231.185 102.413 231.539 102.850 C 232.905 104.538,233.130 106.361,232.079 107.227 L 231.425 107.767 224.664 107.766 C 217.551 107.765,217.213 107.729,216.586 106.905 C 216.538 106.842,216.093 106.496,215.598 106.137 C 213.972 104.960,213.284 104.022,212.740 102.238 C 212.623 101.852,212.463 101.378,212.387 101.185 C 211.867 99.879,211.847 99.317,211.847 86.166 L 211.847 72.751 211.452 72.296 C 210.741 71.476,210.508 71.435,206.549 71.435 C 202.262 71.434,202.197 71.413,201.498 69.782 C 200.845 68.258,201.018 66.940,201.949 66.344 C 202.614 65.919,215.989 65.822,217.171 66.233 M75.661 66.690 C 77.136 66.980,77.402 67.742,77.402 71.675 C 77.402 75.589,76.757 75.183,83.177 75.318 C 90.500 75.473,90.391 75.440,90.391 77.524 C 90.391 79.092,89.951 80.138,89.215 80.323 C 88.957 80.387,88.544 80.546,88.296 80.675 C 87.952 80.855,86.715 80.911,83.054 80.912 L 78.263 80.913 77.833 81.377 L 77.402 81.842 77.416 90.723 C 77.433 101.274,77.412 101.128,78.982 101.759 C 80.142 102.226,81.086 102.326,84.359 102.326 L 87.853 102.326 88.510 102.867 C 89.697 103.845,90.321 106.231,89.583 106.969 C 88.850 107.702,88.294 107.767,82.690 107.766 C 76.203 107.764,76.505 107.828,74.294 106.010 C 74.178 105.914,74.005 105.836,73.910 105.836 C 73.815 105.836,73.280 105.280,72.722 104.601 C 71.234 102.793,71.260 103.008,71.157 91.882 C 71.108 86.670,71.031 82.227,70.985 82.011 C 70.834 81.293,69.880 81.058,66.448 80.892 C 63.961 80.772,63.240 80.682,62.993 80.459 C 61.967 79.530,61.565 76.767,62.352 76.051 C 63.113 75.357,63.444 75.296,66.445 75.296 C 71.207 75.296,71.077 75.395,71.082 71.786 C 71.088 67.336,72.010 65.943,74.594 66.476 C 74.835 66.526,75.315 66.622,75.661 66.690 M100.132 75.157 C 99.002 75.805,99.011 79.525,100.147 81.018 C 100.592 81.604,101.872 81.782,105.669 81.787 C 107.690 81.789,108.638 81.854,108.785 82.001 C 109.096 82.313,109.088 100.979,108.776 101.233 C 108.645 101.340,106.752 101.440,104.081 101.481 C 98.486 101.568,98.355 101.617,97.816 103.817 C 97.289 105.970,97.691 107.769,98.766 108.069 C 99.034 108.144,105.431 108.205,112.980 108.205 L 126.705 108.205 127.416 107.512 C 128.279 106.669,128.443 105.040,127.775 103.945 C 127.582 103.629,127.424 103.267,127.424 103.140 C 127.424 103.014,127.159 102.603,126.834 102.228 L 126.244 101.545 122.051 101.478 C 119.581 101.438,117.769 101.337,117.639 101.232 C 117.468 101.093,117.420 98.360,117.420 88.647 L 117.420 76.239 116.937 75.801 C 116.672 75.560,116.234 75.269,115.964 75.154 C 115.281 74.864,100.638 74.867,100.132 75.157 M132.758 75.308 C 131.581 75.888,131.637 75.077,131.637 91.548 C 131.637 108.102,131.581 107.268,132.737 107.891 C 133.510 108.307,137.805 108.345,138.586 107.942 C 139.909 107.259,139.788 108.502,139.886 94.637 C 139.988 80.199,139.866 81.131,141.624 81.337 C 143.278 81.532,143.219 81.026,143.220 94.954 L 143.221 106.801 143.616 107.241 C 144.357 108.067,144.869 108.205,147.189 108.205 L 149.347 108.205 150.057 107.512 L 150.768 106.818 150.776 95.313 C 150.784 83.283,150.805 82.905,151.560 81.647 C 151.851 81.162,151.982 81.083,152.348 81.177 C 152.589 81.238,153.034 81.330,153.336 81.381 C 154.293 81.541,154.278 81.326,154.278 94.657 L 154.278 106.980 154.722 107.459 C 156.054 108.895,161.879 108.399,162.276 106.816 C 162.328 106.611,162.346 100.955,162.317 94.248 C 162.262 81.453,162.288 81.911,161.540 80.913 C 161.432 80.768,161.289 80.333,161.223 79.947 C 160.940 78.301,160.536 77.561,159.676 77.117 C 159.411 76.980,159.080 76.595,158.941 76.261 C 158.454 75.097,157.936 74.947,154.401 74.946 C 151.206 74.945,150.490 75.074,150.118 75.714 C 149.477 76.819,148.084 77.092,147.721 76.185 C 147.248 75.001,146.798 74.894,142.833 75.018 C 139.062 75.136,139.327 75.135,135.937 75.030 C 133.732 74.961,133.405 74.990,132.758 75.308 M175.870 75.266 C 175.402 75.445,174.996 75.742,174.868 75.999 C 174.738 76.259,174.352 76.539,173.899 76.702 C 172.839 77.083,172.080 77.581,171.769 78.099 C 171.622 78.343,171.174 78.899,170.772 79.333 C 169.556 80.647,169.506 80.752,169.078 82.892 C 169.024 83.160,168.845 83.452,168.681 83.540 C 167.256 84.303,167.211 98.575,168.631 99.618 C 168.922 99.832,169.366 100.997,169.370 101.560 C 169.374 102.075,169.753 102.762,170.357 103.344 C 170.636 103.613,171.095 104.170,171.377 104.581 C 172.047 105.556,172.961 106.267,173.910 106.551 C 174.331 106.677,174.721 106.903,174.778 107.054 C 175.177 108.109,175.800 108.205,182.199 108.205 C 188.444 108.205,188.851 108.144,189.400 107.117 C 189.536 106.863,189.885 106.643,190.333 106.530 C 191.768 106.168,192.380 105.792,192.948 104.925 C 193.252 104.461,193.587 104.081,193.692 104.081 C 194.974 104.081,195.519 99.311,194.368 98.161 C 193.783 97.576,190.267 97.460,189.212 97.992 C 188.983 98.107,188.622 98.517,188.409 98.903 C 188.195 99.289,187.806 99.712,187.544 99.842 C 187.282 99.972,186.910 100.345,186.718 100.671 C 185.820 102.192,178.110 102.190,177.728 100.670 C 177.668 100.430,177.330 99.953,176.978 99.611 C 176.210 98.865,176.068 98.213,176.053 95.368 C 176.044 93.740,176.089 93.394,176.320 93.305 C 176.472 93.247,180.451 93.199,185.161 93.199 C 194.718 93.199,194.548 93.212,195.439 92.396 L 196.081 91.807 196.022 88.949 C 195.975 86.655,195.903 85.972,195.656 85.493 C 195.487 85.164,195.349 84.700,195.349 84.460 C 195.349 84.221,195.274 83.739,195.182 83.390 C 195.091 83.041,194.913 82.368,194.787 81.895 C 194.630 81.302,194.384 80.895,193.994 80.583 C 193.683 80.335,193.383 79.921,193.326 79.665 C 193.270 79.409,193.090 79.079,192.926 78.932 C 192.762 78.785,192.238 78.300,191.760 77.853 C 191.283 77.406,190.710 77.004,190.488 76.958 C 190.265 76.913,189.891 76.836,189.656 76.788 C 189.421 76.739,189.182 76.551,189.125 76.370 C 188.717 75.087,187.976 74.943,181.814 74.955 C 177.377 74.963,176.546 75.006,175.870 75.266 M240.694 75.216 C 239.613 75.689,239.350 76.252,239.460 77.853 C 239.687 81.155,240.693 81.790,245.698 81.790 C 247.391 81.790,248.889 81.873,249.206 81.983 L 249.759 82.176 249.759 91.618 C 249.759 100.442,249.739 101.068,249.452 101.194 C 249.283 101.267,247.130 101.380,244.668 101.444 C 239.861 101.568,239.514 101.637,239.112 102.546 C 239.016 102.763,238.766 103.295,238.556 103.730 C 237.893 105.100,238.006 106.686,238.828 107.532 L 239.482 108.205 252.475 108.260 C 269.851 108.333,268.451 108.578,268.451 105.456 C 268.451 101.707,268.317 101.620,262.296 101.454 C 259.877 101.387,257.803 101.275,257.689 101.205 C 257.532 101.108,257.480 97.987,257.476 88.493 C 257.470 75.196,257.494 75.594,256.659 75.149 C 256.060 74.830,241.435 74.891,240.694 75.216 M274.399 75.313 C 274.003 75.505,273.588 75.861,273.478 76.102 C 273.116 76.897,273.201 106.609,273.567 107.167 C 274.161 108.074,274.695 108.205,277.793 108.205 L 280.642 108.205 281.128 107.719 L 281.615 107.232 281.716 95.959 C 281.824 83.865,281.805 84.115,282.624 83.721 C 282.925 83.576,283.223 83.339,283.286 83.194 C 283.349 83.050,283.515 82.694,283.655 82.405 L 283.909 81.878 286.711 81.825 C 290.166 81.759,291.707 82.202,291.707 83.261 C 291.707 83.385,291.765 83.545,291.836 83.616 C 292.295 84.075,292.387 86.132,292.398 96.253 L 292.409 106.767 293.129 107.432 C 294.347 108.557,299.394 108.731,300.237 107.677 L 300.656 107.152 300.657 95.427 C 300.658 82.085,300.633 81.740,299.581 80.467 C 299.208 80.015,298.903 79.535,298.903 79.399 C 298.903 78.922,298.116 77.961,297.177 77.290 C 296.654 76.918,295.883 76.333,295.464 75.992 C 294.294 75.041,293.662 74.945,288.560 74.945 C 283.454 74.945,282.546 75.111,282.301 76.088 L 282.186 76.546 281.862 76.014 C 281.180 74.892,276.224 74.427,274.399 75.313 M316.610 75.180 C 315.876 75.416,315.050 75.994,315.050 76.274 C 315.050 76.379,314.833 76.565,314.568 76.686 C 313.146 77.337,312.859 77.538,312.606 78.057 C 312.454 78.368,312.206 78.625,312.053 78.627 C 311.662 78.633,311.125 79.301,310.853 80.123 C 310.725 80.509,310.333 81.105,309.983 81.448 C 308.905 82.502,308.823 83.214,308.823 91.531 C 308.823 99.923,308.914 100.728,309.974 101.778 C 310.327 102.127,310.721 102.729,310.851 103.115 C 311.141 103.981,311.451 104.371,311.948 104.497 C 312.158 104.550,312.438 104.841,312.571 105.143 C 312.820 105.711,313.690 106.361,314.203 106.362 C 314.364 106.362,314.759 106.644,315.080 106.989 C 316.197 108.186,316.237 108.193,322.685 108.199 C 329.140 108.206,329.158 108.203,330.291 106.989 C 330.658 106.596,331.038 106.362,331.311 106.362 C 331.902 106.362,332.396 106.081,333.132 105.328 C 333.472 104.980,333.922 104.561,334.132 104.398 C 334.342 104.234,334.598 103.789,334.700 103.408 C 334.809 103.004,335.070 102.595,335.326 102.427 C 336.346 101.759,336.436 99.436,335.476 98.547 C 333.265 96.498,327.512 98.075,327.512 100.729 C 327.512 101.564,321.238 102.126,319.543 101.443 C 319.341 101.362,318.888 101.248,318.536 101.192 C 318.017 101.108,317.879 100.999,317.802 100.610 C 317.678 99.991,317.072 97.752,316.936 97.411 C 316.768 96.989,316.618 96.011,316.515 94.674 L 316.419 93.428 317.516 93.313 C 318.119 93.250,322.135 93.195,326.441 93.191 C 330.747 93.187,334.613 93.117,335.033 93.036 C 336.396 92.773,336.376 92.845,336.372 88.145 C 336.367 83.634,336.289 83.165,335.400 82.293 C 335.141 82.039,334.790 81.387,334.619 80.845 C 334.330 79.926,333.645 78.982,333.268 78.982 C 333.051 78.982,332.755 78.650,332.402 78.011 C 332.236 77.711,331.700 77.267,331.139 76.964 C 330.602 76.674,329.898 76.193,329.574 75.894 C 329.250 75.595,328.752 75.284,328.468 75.204 C 327.622 74.964,317.347 74.944,316.610 75.180 M115.050 75.552 C 115.340 75.632,115.794 75.849,116.060 76.035 L 116.542 76.373 116.542 88.729 L 116.542 101.085 117.162 101.705 L 117.783 102.326 121.578 102.326 L 125.373 102.326 125.979 102.788 C 127.583 104.011,127.731 106.710,126.240 107.547 C 125.676 107.864,100.617 107.866,99.705 107.549 C 98.505 107.132,98.165 106.130,98.642 104.413 C 99.148 102.593,99.918 102.326,104.660 102.326 L 108.564 102.326 109.218 101.786 L 109.873 101.247 109.863 91.562 L 109.853 81.878 109.300 81.439 C 108.766 81.015,108.634 80.997,105.405 80.902 C 100.583 80.761,100.044 80.420,100.044 77.513 C 100.044 76.014,100.245 75.727,101.467 75.484 C 102.424 75.293,114.328 75.353,115.050 75.552 M137.687 75.682 C 138.124 75.894,138.482 76.131,138.482 76.209 C 138.482 76.453,139.302 76.361,140.091 76.028 C 141.300 75.516,142.923 75.242,144.044 75.359 C 146.242 75.589,146.335 75.626,147.194 76.632 C 148.279 77.902,149.195 77.848,150.821 76.416 C 151.947 75.426,154.553 74.956,156.139 75.457 C 156.419 75.546,156.850 75.662,157.098 75.716 C 157.558 75.815,158.315 76.372,158.315 76.611 C 158.315 76.684,158.704 77.097,159.179 77.528 C 160.302 78.546,160.850 79.922,161.297 82.843 C 161.399 83.511,161.472 88.689,161.473 95.318 L 161.474 106.652 161.079 106.990 C 160.013 107.902,157.774 108.091,156.293 107.395 C 155.259 106.909,155.340 107.973,155.289 94.340 C 155.242 81.955,155.260 82.286,154.582 81.360 C 153.095 79.330,151.971 79.432,150.592 81.721 L 149.978 82.741 149.890 94.784 C 149.795 107.818,149.861 106.987,148.877 107.547 C 148.191 107.937,145.944 107.829,145.242 107.372 L 144.636 106.977 144.582 95.217 C 144.525 82.706,144.524 82.691,143.659 81.685 C 143.418 81.405,143.221 81.077,143.221 80.957 C 143.221 80.836,143.151 80.737,143.066 80.737 C 142.980 80.737,142.869 80.579,142.819 80.386 C 142.740 80.084,142.579 80.035,141.666 80.035 L 140.605 80.035 140.016 81.044 C 139.692 81.599,139.353 82.211,139.264 82.405 C 139.171 82.604,139.062 87.990,139.011 94.852 L 138.921 106.949 138.131 107.353 C 136.689 108.090,134.257 107.920,133.260 107.012 L 132.865 106.652 132.865 91.576 C 132.865 74.859,132.759 76.284,134.055 75.636 C 134.997 75.166,136.668 75.187,137.687 75.682 M185.048 75.476 C 186.866 75.734,187.628 75.996,188.370 76.619 C 188.731 76.922,189.342 77.274,189.729 77.401 C 190.115 77.529,190.841 78.016,191.342 78.483 C 191.842 78.951,192.308 79.333,192.376 79.333 C 192.445 79.333,192.624 79.594,192.776 79.913 C 192.927 80.232,193.285 80.788,193.571 81.148 C 194.639 82.491,195.252 85.932,195.140 89.945 L 195.086 91.869 194.489 92.271 L 193.893 92.672 185.187 92.673 C 176.688 92.674,176.467 92.682,175.884 93.037 L 175.287 93.401 175.401 95.641 C 175.463 96.873,175.600 98.150,175.705 98.480 C 175.988 99.366,176.602 100.570,176.772 100.570 C 176.853 100.570,176.920 100.685,176.920 100.825 C 176.920 101.182,177.879 101.848,179.073 102.320 C 179.629 102.540,180.128 102.789,180.180 102.874 C 180.389 103.212,184.004 103.049,184.829 102.664 C 187.224 101.547,187.425 101.401,188.819 99.759 C 190.128 98.216,193.295 98.092,194.051 99.554 C 195.107 101.595,193.263 104.611,190.163 105.915 C 189.492 106.198,188.903 106.477,188.855 106.536 C 187.574 108.098,178.465 108.360,176.154 106.901 C 175.851 106.710,175.169 106.339,174.638 106.077 C 173.710 105.618,171.303 103.420,171.303 103.032 C 171.303 102.931,171.097 102.617,170.844 102.334 C 168.538 99.745,168.163 84.597,170.332 81.594 C 170.567 81.268,170.980 80.645,171.248 80.211 C 171.746 79.404,173.321 77.830,173.999 77.461 C 174.206 77.349,174.651 77.137,174.989 76.990 C 175.327 76.843,175.761 76.578,175.954 76.400 C 176.951 75.483,181.702 75.000,185.048 75.476 M255.537 75.484 C 257.066 75.836,256.955 74.800,256.955 88.679 C 256.955 102.421,256.898 101.796,258.179 102.152 C 258.519 102.246,260.319 102.324,262.179 102.325 C 264.038 102.325,265.697 102.400,265.865 102.490 C 266.032 102.581,266.377 102.699,266.631 102.752 C 267.702 102.975,268.472 106.130,267.678 107.045 C 267.075 107.740,266.547 107.767,253.287 107.767 L 240.402 107.767 239.815 107.319 C 239.065 106.747,238.970 105.153,239.604 103.803 C 240.240 102.451,240.322 102.428,245.012 102.307 C 249.430 102.193,249.855 102.133,250.325 101.556 C 250.604 101.214,250.629 100.416,250.632 91.568 L 250.636 81.950 250.220 81.502 C 249.809 81.058,249.766 81.052,246.006 80.902 C 241.688 80.729,241.695 80.731,240.978 79.058 C 240.240 77.338,240.512 76.322,241.917 75.543 C 242.408 75.270,254.384 75.218,255.537 75.484 M279.448 75.529 C 280.394 75.729,281.176 76.203,281.176 76.577 C 281.176 76.810,281.728 77.214,282.057 77.221 C 282.203 77.224,282.707 76.910,283.175 76.523 C 284.061 75.791,284.109 75.772,285.815 75.476 C 288.570 75.000,293.355 75.574,294.566 76.527 C 294.810 76.719,295.135 76.876,295.289 76.876 C 295.442 76.876,295.568 76.955,295.568 77.051 C 295.568 77.148,295.680 77.227,295.816 77.227 C 295.953 77.227,296.525 77.695,297.089 78.267 C 298.368 79.566,298.324 79.505,299.157 81.088 L 299.850 82.405 299.976 85.213 C 300.046 86.757,300.109 92.228,300.117 97.369 L 300.132 106.717 299.630 107.242 L 299.128 107.767 297.011 107.767 C 294.989 107.767,294.869 107.746,294.353 107.312 L 293.813 106.858 293.813 96.438 C 293.813 89.131,293.754 85.873,293.616 85.528 C 293.144 84.355,293.054 84.136,292.868 83.721 C 292.761 83.480,292.629 83.243,292.575 83.194 C 292.521 83.146,292.370 82.843,292.240 82.521 C 291.621 80.991,284.558 80.469,283.282 81.860 C 282.328 82.899,281.527 84.013,281.527 84.300 C 281.527 84.477,281.428 84.794,281.308 85.005 C 281.141 85.295,281.067 88.000,281.000 96.164 L 280.913 106.939 280.423 107.305 C 279.800 107.769,276.615 107.952,275.688 107.577 C 274.410 107.059,274.506 108.374,274.506 91.532 C 274.506 77.346,274.525 76.387,274.814 76.129 C 275.698 75.340,277.469 75.110,279.448 75.529 M325.636 75.483 C 327.271 75.724,328.005 75.953,328.653 76.424 C 328.943 76.635,329.625 77.021,330.169 77.283 C 331.919 78.126,334.708 81.362,334.708 82.550 C 334.708 82.633,334.859 82.913,335.043 83.172 C 335.844 84.297,336.299 91.166,335.623 91.934 C 335.015 92.623,334.385 92.672,326.074 92.672 C 318.293 92.672,316.557 92.770,315.972 93.241 C 315.382 93.716,315.742 96.941,316.624 99.079 C 317.423 101.014,317.690 101.434,318.290 101.699 C 321.238 103.004,321.323 103.028,322.976 103.028 C 324.405 103.028,324.649 102.975,325.806 102.413 C 326.502 102.075,327.170 101.799,327.289 101.799 C 327.409 101.799,327.852 101.360,328.273 100.822 C 329.315 99.495,330.990 98.464,332.106 98.464 C 333.088 98.464,334.628 99.103,334.850 99.602 C 335.195 100.380,335.372 101.100,335.238 101.183 C 335.161 101.230,334.841 101.803,334.528 102.456 C 334.216 103.108,333.757 103.800,333.510 103.993 C 333.263 104.186,332.898 104.511,332.699 104.716 C 332.227 105.203,331.180 105.834,330.845 105.835 C 330.698 105.836,330.150 106.125,329.626 106.478 C 327.088 108.187,319.253 108.412,316.578 106.853 C 316.116 106.583,315.668 106.362,315.584 106.362 C 315.500 106.362,315.404 106.294,315.372 106.211 C 315.340 106.127,315.022 105.910,314.665 105.728 C 312.173 104.457,309.844 100.556,309.566 97.190 C 309.205 92.807,309.585 83.633,310.146 83.194 C 310.208 83.146,310.597 82.411,311.010 81.561 C 311.853 79.829,313.552 77.945,314.734 77.433 C 315.101 77.274,315.401 77.084,315.401 77.010 C 315.401 76.936,315.479 76.876,315.574 76.876 C 315.669 76.876,316.153 76.626,316.650 76.321 C 318.148 75.398,322.389 75.003,325.636 75.483 M181.395 80.384 C 176.789 81.236,175.664 82.468,175.476 86.866 C 175.400 88.635,175.297 88.607,181.852 88.623 C 187.230 88.635,188.079 88.557,188.646 87.991 C 189.044 87.594,188.491 83.669,187.969 83.194 C 187.916 83.146,187.690 82.846,187.467 82.526 C 186.992 81.846,186.001 81.181,185.257 81.042 C 184.967 80.988,184.138 80.781,183.414 80.580 C 182.690 80.380,182.097 80.225,182.097 80.236 C 182.097 80.246,181.781 80.313,181.395 80.384 M320.755 80.601 C 320.369 80.695,319.916 80.843,319.748 80.930 C 319.580 81.017,319.362 81.088,319.263 81.088 C 319.164 81.088,318.740 81.250,318.319 81.447 C 316.844 82.141,315.015 87.297,315.972 88.067 C 317.001 88.894,328.085 88.860,329.436 88.025 C 329.843 87.774,329.123 84.146,328.531 83.470 C 328.441 83.367,328.194 82.929,327.983 82.498 C 327.580 81.673,327.438 81.603,324.077 80.554 C 323.414 80.347,321.699 80.372,320.755 80.601 M184.728 81.739 C 186.009 81.853,186.398 82.061,186.398 82.633 C 186.398 82.821,186.706 83.312,187.083 83.724 C 187.652 84.347,187.786 84.639,187.879 85.457 C 187.941 85.999,188.035 86.765,188.088 87.160 L 188.184 87.879 186.826 87.994 C 185.067 88.143,177.919 88.143,176.836 87.994 L 176.000 87.880 176.126 85.947 C 176.258 83.907,176.329 83.545,176.595 83.545 C 176.800 83.545,177.439 82.903,177.818 82.317 C 178.067 81.931,178.299 81.853,179.748 81.673 C 181.315 81.478,181.868 81.486,184.728 81.739 M324.967 81.705 C 326.525 81.906,327.298 82.464,327.633 83.633 C 327.994 84.888,328.214 86.187,328.214 87.058 L 328.214 87.912 327.436 88.028 C 326.451 88.176,316.700 88.062,316.539 87.901 C 316.473 87.835,316.551 87.203,316.711 86.497 C 316.872 85.791,317.046 84.917,317.098 84.555 C 317.151 84.193,317.250 83.896,317.319 83.896 C 317.388 83.896,317.550 83.507,317.680 83.031 C 317.946 82.053,317.945 82.053,320.228 81.689 C 321.596 81.471,323.186 81.477,324.967 81.705 " stroke="none" fill="#d87e64" fill-rule="evenodd"></path><path id="path4" d="M18.078 0.521 L 18.078 1.041 16.191 1.091 L 14.305 1.141 14.251 2.062 L 14.198 2.984 12.365 2.984 L 10.531 2.984 10.531 3.949 L 10.531 4.914 9.566 4.914 L 8.600 4.914 8.600 5.783 L 8.600 6.651 7.679 6.704 L 6.757 6.757 6.704 7.679 L 6.651 8.600 5.783 8.600 L 4.914 8.600 4.914 9.566 L 4.914 10.531 3.949 10.531 L 2.984 10.531 2.984 12.365 L 2.984 14.198 2.062 14.251 L 1.141 14.305 1.091 16.191 L 1.041 18.078 0.521 18.078 L 0.000 18.078 0.000 87.846 L 0.000 157.613 0.527 157.613 L 1.053 157.613 1.053 159.456 L 1.053 161.299 2.018 161.299 L 2.984 161.299 2.984 163.229 L 2.984 165.160 3.949 165.160 L 4.914 165.160 4.914 166.125 L 4.914 167.091 5.792 167.091 L 6.670 167.091 6.670 167.968 L 6.670 168.846 7.626 168.846 L 8.582 168.846 8.635 169.767 L 8.688 170.689 9.609 170.742 L 10.531 170.795 10.531 171.751 L 10.531 172.707 12.365 172.707 L 14.198 172.707 14.251 173.629 L 14.305 174.550 16.191 174.600 C 18.067 174.650,18.078 174.653,18.078 175.083 L 18.078 175.516 200.088 175.516 L 382.097 175.516 382.097 175.077 L 382.097 174.638 383.940 174.638 L 385.783 174.638 385.783 173.679 L 385.783 172.719 387.670 172.669 L 389.557 172.620 389.610 171.707 L 389.662 170.794 390.575 170.742 L 391.487 170.689 391.541 169.767 L 391.594 168.846 392.462 168.846 L 393.330 168.846 393.330 167.978 L 393.330 167.109 394.252 167.056 L 395.173 167.003 395.226 166.090 L 395.279 165.178 396.191 165.125 L 397.104 165.072 397.154 163.186 L 397.204 161.299 398.163 161.299 L 399.122 161.299 399.122 159.456 L 399.122 157.613 399.561 157.613 L 400.000 157.613 400.000 87.846 L 400.000 18.078 399.567 18.078 C 399.137 18.078,399.134 18.067,399.084 16.191 L 399.035 14.305 398.113 14.251 L 397.192 14.198 397.192 12.365 L 397.192 10.531 396.236 10.531 L 395.279 10.531 395.226 9.609 L 395.173 8.688 394.252 8.635 L 393.330 8.582 393.330 7.626 L 393.330 6.670 392.453 6.670 L 391.575 6.670 391.575 5.792 L 391.575 4.914 390.610 4.914 L 389.645 4.914 389.645 3.949 L 389.645 2.984 387.714 2.984 L 385.783 2.984 385.783 2.018 L 385.783 1.053 383.940 1.053 L 382.097 1.053 382.097 0.527 L 382.097 0.000 200.088 0.000 L 18.078 0.000 18.078 0.521 M114.791 61.828 C 116.133 62.298,117.392 63.861,117.602 65.314 C 117.809 66.755,117.573 68.632,117.138 68.993 C 117.003 69.105,116.893 69.293,116.893 69.410 C 116.893 69.528,116.524 69.815,116.071 70.047 C 114.591 70.808,108.644 70.617,108.644 69.808 C 108.644 69.718,108.420 69.436,108.147 69.180 C 106.747 67.870,106.740 64.294,108.136 63.676 C 108.416 63.552,108.645 63.332,108.645 63.187 C 108.649 61.934,112.602 61.060,114.791 61.828 M255.344 61.859 C 256.358 62.129,256.704 62.433,257.227 63.515 C 257.415 63.903,257.742 64.300,257.953 64.397 C 259.005 64.878,258.850 68.094,257.776 68.101 C 257.545 68.103,257.130 68.893,257.130 69.333 C 257.130 70.280,256.442 70.470,253.006 70.470 C 249.247 70.470,249.210 70.454,248.527 68.579 C 248.311 67.988,248.029 67.398,247.899 67.269 C 247.286 66.656,248.754 62.820,249.822 62.246 C 251.076 61.572,253.599 61.394,255.344 61.859 M218.166 65.802 C 219.267 66.422,219.184 65.037,219.248 83.810 C 219.295 97.527,219.352 100.949,219.535 101.132 C 219.708 101.306,221.146 101.383,225.590 101.455 C 231.848 101.557,231.966 101.575,232.389 102.492 C 233.065 103.954,233.322 106.468,232.881 107.292 C 232.371 108.246,232.741 108.205,224.497 108.205 C 215.823 108.205,216.326 108.283,214.824 106.715 C 214.385 106.257,213.864 105.831,213.665 105.768 C 213.296 105.651,212.648 104.546,212.451 103.699 C 212.391 103.440,212.188 103.089,211.999 102.918 C 210.878 101.904,210.794 100.691,210.794 85.555 C 210.794 73.836,210.766 72.515,210.517 72.419 C 210.364 72.360,208.716 72.312,206.855 72.312 C 201.039 72.312,200.150 71.810,199.948 68.411 C 199.841 66.601,200.276 65.980,201.931 65.582 C 202.866 65.358,217.734 65.559,218.166 65.802 M76.386 65.825 C 77.703 66.191,77.833 66.619,77.902 70.821 C 77.938 72.982,78.038 74.597,78.143 74.726 C 78.280 74.893,79.653 74.945,83.910 74.945 C 91.072 74.945,91.082 74.948,91.089 77.531 C 91.099 81.521,90.617 81.774,82.978 81.784 L 78.111 81.790 78.008 82.201 C 77.835 82.889,78.028 99.912,78.215 100.473 C 78.469 101.232,78.915 101.308,83.896 101.436 C 88.862 101.563,88.948 101.582,89.776 102.734 C 90.524 103.774,90.714 104.361,90.723 105.660 C 90.731 106.899,90.626 107.113,89.688 107.773 L 89.074 108.205 82.580 108.205 C 75.423 108.205,75.422 108.205,74.519 107.328 C 74.171 106.990,73.820 106.713,73.739 106.713 C 73.658 106.713,73.379 106.516,73.119 106.275 C 72.858 106.033,72.584 105.836,72.509 105.836 C 72.021 105.836,70.919 103.856,70.912 102.967 C 70.910 102.692,70.758 102.256,70.573 101.997 C 69.942 101.111,69.855 99.758,69.855 90.860 C 69.855 80.687,70.224 81.804,66.860 81.796 C 62.081 81.785,61.110 81.055,61.086 77.456 C 61.071 75.269,61.654 74.945,65.605 74.945 C 67.436 74.945,68.981 74.865,69.302 74.752 L 69.855 74.560 69.855 71.650 C 69.855 68.661,69.995 67.817,70.601 67.145 C 70.770 66.958,70.908 66.736,70.908 66.650 C 70.908 65.812,74.429 65.282,76.386 65.825 M115.964 75.154 C 116.234 75.269,116.672 75.560,116.937 75.801 L 117.420 76.239 117.420 88.647 C 117.420 98.360,117.468 101.093,117.639 101.232 C 117.769 101.337,119.581 101.438,122.051 101.478 L 126.244 101.545 126.834 102.228 C 127.159 102.603,127.424 103.014,127.424 103.140 C 127.424 103.267,127.582 103.629,127.775 103.945 C 128.443 105.040,128.279 106.669,127.416 107.512 L 126.705 108.205 112.980 108.205 C 105.431 108.205,99.034 108.144,98.766 108.069 C 97.691 107.769,97.289 105.970,97.816 103.817 C 98.355 101.617,98.486 101.568,104.081 101.481 C 106.752 101.440,108.645 101.340,108.776 101.233 C 109.088 100.979,109.096 82.313,108.785 82.001 C 108.638 81.854,107.690 81.789,105.669 81.787 C 99.863 81.780,99.343 81.434,99.350 77.578 C 99.353 75.869,99.458 75.543,100.132 75.157 C 100.638 74.867,115.281 74.864,115.964 75.154 M138.921 75.115 C 139.210 75.120,140.971 75.076,142.833 75.018 C 146.798 74.894,147.248 75.001,147.721 76.185 C 148.084 77.092,149.477 76.819,150.118 75.714 C 150.490 75.074,151.206 74.945,154.401 74.946 C 157.936 74.947,158.454 75.097,158.941 76.261 C 159.080 76.595,159.411 76.980,159.676 77.117 C 160.536 77.561,160.940 78.301,161.223 79.947 C 161.289 80.333,161.432 80.768,161.540 80.913 C 162.288 81.911,162.262 81.453,162.317 94.248 C 162.346 100.955,162.328 106.611,162.276 106.816 C 161.879 108.399,156.054 108.895,154.722 107.459 L 154.278 106.980 154.278 94.657 C 154.278 81.326,154.293 81.541,153.336 81.381 C 153.034 81.330,152.589 81.238,152.348 81.177 C 151.982 81.083,151.851 81.162,151.560 81.647 C 150.805 82.905,150.784 83.283,150.776 95.313 L 150.768 106.818 150.057 107.512 L 149.347 108.205 147.189 108.205 C 144.869 108.205,144.357 108.067,143.616 107.241 L 143.221 106.801 143.220 94.954 C 143.219 81.026,143.278 81.532,141.624 81.337 C 139.866 81.131,139.988 80.199,139.886 94.637 C 139.800 106.765,139.790 107.052,139.447 107.362 C 137.893 108.765,132.675 108.564,131.903 107.070 C 131.558 106.403,131.495 76.853,131.837 76.102 C 132.251 75.193,133.203 74.944,135.937 75.030 C 137.288 75.072,138.631 75.110,138.921 75.115 M187.694 75.156 C 188.442 75.375,188.944 75.800,189.125 76.370 C 189.182 76.551,189.421 76.739,189.656 76.788 C 189.891 76.836,190.265 76.913,190.488 76.958 C 190.710 77.004,191.283 77.406,191.760 77.853 C 192.238 78.300,192.762 78.785,192.926 78.932 C 193.090 79.079,193.270 79.409,193.326 79.665 C 193.383 79.921,193.683 80.335,193.994 80.583 C 194.384 80.895,194.630 81.302,194.787 81.895 C 194.913 82.368,195.091 83.041,195.182 83.390 C 195.274 83.739,195.349 84.221,195.349 84.460 C 195.349 84.700,195.487 85.164,195.656 85.493 C 195.903 85.972,195.975 86.655,196.022 88.949 L 196.081 91.807 195.439 92.396 C 194.548 93.212,194.718 93.199,185.161 93.199 C 180.451 93.199,176.472 93.247,176.320 93.305 C 176.089 93.394,176.044 93.740,176.053 95.368 C 176.068 98.213,176.210 98.865,176.978 99.611 C 177.330 99.953,177.668 100.430,177.728 100.670 C 178.110 102.190,185.820 102.192,186.718 100.671 C 186.910 100.345,187.282 99.972,187.544 99.842 C 187.806 99.712,188.195 99.289,188.409 98.903 C 188.622 98.517,188.983 98.107,189.212 97.992 C 190.267 97.460,193.783 97.576,194.368 98.161 C 195.519 99.311,194.974 104.081,193.692 104.081 C 193.587 104.081,193.252 104.461,192.948 104.925 C 192.380 105.792,191.768 106.168,190.333 106.530 C 189.885 106.643,189.536 106.863,189.400 107.117 C 188.851 108.144,188.444 108.205,182.199 108.205 C 175.800 108.205,175.177 108.109,174.778 107.054 C 174.721 106.903,174.331 106.677,173.910 106.551 C 172.961 106.267,172.047 105.556,171.377 104.581 C 171.095 104.170,170.636 103.613,170.357 103.344 C 169.753 102.762,169.374 102.075,169.370 101.560 C 169.366 100.997,168.922 99.832,168.631 99.618 C 167.211 98.575,167.256 84.303,168.681 83.540 C 168.845 83.452,169.024 83.160,169.078 82.892 C 169.506 80.752,169.556 80.647,170.772 79.333 C 171.174 78.899,171.622 78.343,171.769 78.099 C 172.080 77.581,172.839 77.083,173.899 76.702 C 174.352 76.539,174.738 76.259,174.868 75.999 C 175.321 75.090,176.148 74.965,181.814 74.955 C 185.339 74.948,187.200 75.012,187.694 75.156 M256.659 75.149 C 257.494 75.594,257.470 75.196,257.476 88.493 C 257.480 97.987,257.532 101.108,257.689 101.205 C 257.803 101.275,259.877 101.387,262.296 101.454 C 268.317 101.620,268.451 101.707,268.451 105.456 C 268.451 108.578,269.851 108.333,252.475 108.260 L 239.482 108.205 238.828 107.532 C 238.006 106.686,237.893 105.100,238.556 103.730 C 238.766 103.295,239.016 102.763,239.112 102.546 C 239.514 101.637,239.861 101.568,244.668 101.444 C 247.130 101.380,249.283 101.267,249.452 101.194 C 249.739 101.068,249.759 100.442,249.759 91.618 L 249.759 82.176 249.206 81.983 C 248.889 81.873,247.391 81.790,245.698 81.790 C 240.693 81.790,239.687 81.155,239.460 77.853 C 239.350 76.252,239.613 75.689,240.694 75.216 C 241.435 74.891,256.060 74.830,256.659 75.149 M280.897 75.213 C 281.249 75.360,281.684 75.721,281.862 76.014 L 282.186 76.546 282.301 76.088 C 282.546 75.111,283.454 74.945,288.560 74.945 C 293.662 74.945,294.294 75.041,295.464 75.992 C 295.883 76.333,296.654 76.918,297.177 77.290 C 298.116 77.961,298.903 78.922,298.903 79.399 C 298.903 79.535,299.208 80.015,299.581 80.467 C 300.633 81.740,300.658 82.085,300.657 95.427 L 300.656 107.152 300.237 107.677 C 299.394 108.731,294.347 108.557,293.129 107.432 L 292.409 106.767 292.398 96.253 C 292.387 86.132,292.295 84.075,291.836 83.616 C 291.765 83.545,291.707 83.385,291.707 83.261 C 291.707 82.202,290.166 81.759,286.711 81.825 L 283.909 81.878 283.655 82.405 C 283.515 82.694,283.349 83.050,283.286 83.194 C 283.223 83.339,282.925 83.576,282.624 83.721 C 281.805 84.115,281.824 83.865,281.716 95.959 L 281.615 107.232 281.128 107.719 L 280.642 108.205 277.793 108.205 C 274.695 108.205,274.161 108.074,273.567 107.167 C 273.201 106.609,273.116 76.897,273.478 76.102 C 273.973 75.015,278.985 74.414,280.897 75.213 M328.468 75.204 C 328.752 75.284,329.250 75.595,329.574 75.894 C 329.898 76.193,330.602 76.674,331.139 76.964 C 331.700 77.267,332.236 77.711,332.402 78.011 C 332.755 78.650,333.051 78.982,333.268 78.982 C 333.645 78.982,334.330 79.926,334.619 80.845 C 334.790 81.387,335.141 82.039,335.400 82.293 C 336.289 83.165,336.367 83.634,336.372 88.145 C 336.376 92.845,336.396 92.773,335.033 93.036 C 334.613 93.117,330.747 93.187,326.441 93.191 C 322.135 93.195,318.119 93.250,317.516 93.313 L 316.419 93.428 316.515 94.674 C 316.618 96.011,316.768 96.989,316.936 97.411 C 317.072 97.752,317.678 99.991,317.802 100.610 C 317.879 100.999,318.017 101.108,318.536 101.192 C 318.888 101.248,319.341 101.362,319.543 101.443 C 321.238 102.126,327.512 101.564,327.512 100.729 C 327.512 98.075,333.265 96.498,335.476 98.547 C 336.436 99.436,336.346 101.759,335.326 102.427 C 335.070 102.595,334.809 103.004,334.700 103.408 C 334.598 103.789,334.342 104.234,334.132 104.398 C 333.922 104.561,333.472 104.980,333.132 105.328 C 332.396 106.081,331.902 106.362,331.311 106.362 C 331.038 106.362,330.658 106.596,330.291 106.989 C 329.158 108.203,329.140 108.206,322.685 108.199 C 316.237 108.193,316.197 108.186,315.080 106.989 C 314.759 106.644,314.364 106.362,314.203 106.362 C 313.690 106.361,312.820 105.711,312.571 105.143 C 312.438 104.841,312.158 104.550,311.948 104.497 C 311.451 104.371,311.141 103.981,310.851 103.115 C 310.721 102.729,310.327 102.127,309.974 101.778 C 308.914 100.728,308.823 99.923,308.823 91.531 C 308.823 83.214,308.905 82.502,309.983 81.448 C 310.333 81.105,310.725 80.509,310.853 80.123 C 311.125 79.301,311.662 78.633,312.053 78.627 C 312.206 78.625,312.454 78.368,312.606 78.057 C 312.859 77.538,313.146 77.337,314.568 76.686 C 314.833 76.565,315.050 76.379,315.050 76.274 C 315.050 75.994,315.876 75.416,316.610 75.180 C 317.347 74.944,327.622 74.964,328.468 75.204 M179.748 81.673 C 178.299 81.853,178.067 81.931,177.818 82.317 C 177.439 82.903,176.800 83.545,176.595 83.545 C 176.329 83.545,176.258 83.907,176.126 85.947 L 176.000 87.880 176.836 87.994 C 177.919 88.143,185.067 88.143,186.826 87.994 L 188.184 87.879 188.088 87.160 C 188.035 86.765,187.941 85.999,187.879 85.457 C 187.786 84.639,187.652 84.347,187.083 83.724 C 186.706 83.312,186.398 82.821,186.398 82.633 C 186.398 81.901,186.159 81.835,182.448 81.549 C 181.869 81.505,180.654 81.560,179.748 81.673 M320.228 81.689 C 317.945 82.053,317.946 82.053,317.680 83.031 C 317.550 83.507,317.388 83.896,317.319 83.896 C 317.250 83.896,317.151 84.193,317.098 84.555 C 317.046 84.917,316.872 85.791,316.711 86.497 C 316.551 87.203,316.473 87.835,316.539 87.901 C 316.700 88.062,326.451 88.176,327.436 88.028 L 328.214 87.912 328.214 87.058 C 328.214 85.472,327.615 83.113,327.077 82.580 C 326.131 81.644,323.038 81.241,320.228 81.689 " stroke="none" fill="#d45c0c" fill-rule="evenodd"></path></g></svg>
