<svg id="svg" version="1.1" xmlns="http://www.w3.org/2000/svg" xmlns:xlink="http://www.w3.org/1999/xlink" width="400" height="668.9655172413793" viewBox="0, 0, 400,668.9655172413793"><g id="svgg"><path id="path0" d="M136.400 84.800 L 136.400 146.800 74.400 146.800 L 12.400 146.800 12.400 179.400 L 12.400 212.000 74.400 212.000 L 136.399 212.000 136.500 372.300 L 136.600 532.600 138.292 532.723 L 139.984 532.845 140.092 541.323 L 140.200 549.800 141.688 549.923 L 143.176 550.047 143.288 555.123 L 143.400 560.200 145.100 560.323 L 146.800 560.446 146.800 565.423 L 146.800 570.400 148.600 570.400 L 150.400 570.400 150.400 574.000 L 150.400 577.600 151.984 577.600 L 153.568 577.600 153.684 580.900 L 153.800 584.200 155.500 584.323 L 157.200 584.446 157.200 587.823 L 157.200 591.200 158.777 591.200 C 160.346 591.200,160.355 591.208,160.477 592.900 C 160.599 594.592,160.608 594.601,162.300 594.723 C 163.992 594.845,164.000 594.854,164.000 596.423 L 164.000 598.000 165.800 598.000 L 167.600 598.000 167.600 601.600 L 167.600 605.200 169.200 605.200 L 170.800 605.200 170.800 606.800 L 170.800 608.400 172.600 608.400 L 174.400 608.400 174.400 610.200 L 174.400 612.000 176.200 612.000 L 178.000 612.000 178.000 613.600 C 178.000 615.196,178.004 615.200,179.577 615.200 C 181.146 615.200,181.155 615.208,181.277 616.900 L 181.400 618.600 184.678 618.716 L 187.956 618.832 188.078 620.516 C 188.199 622.189,188.211 622.201,189.900 622.323 C 191.592 622.445,191.600 622.454,191.600 624.023 L 191.600 625.600 193.400 625.600 L 195.200 625.600 195.200 627.400 L 195.200 629.200 198.600 629.200 L 202.000 629.200 202.000 631.000 L 202.000 632.800 203.600 632.800 L 205.200 632.800 205.200 634.400 L 205.200 636.000 208.800 636.000 L 212.400 636.000 212.400 637.800 L 212.400 639.600 215.800 639.600 L 219.200 639.600 219.200 641.200 L 219.200 642.800 224.400 642.800 L 229.600 642.800 229.600 644.600 L 229.600 646.400 234.800 646.400 L 240.000 646.400 240.000 648.200 L 240.000 650.000 246.800 650.000 L 253.600 650.000 253.600 651.600 L 253.600 653.200 265.800 653.200 L 278.000 653.200 278.000 655.000 L 278.000 656.800 298.400 656.800 L 318.800 656.800 318.800 655.000 L 318.800 653.200 341.200 653.200 L 363.600 653.200 363.600 651.606 L 363.600 650.012 375.700 649.906 L 387.800 649.800 387.800 617.200 L 387.800 584.600 377.700 584.493 L 367.600 584.386 367.600 586.189 L 367.600 587.992 350.300 588.096 L 333.000 588.200 332.877 589.900 L 332.754 591.600 305.200 591.600 L 277.646 591.600 277.523 589.900 L 277.400 588.200 270.523 588.091 L 263.645 587.981 263.523 586.291 L 263.400 584.600 258.500 584.488 L 253.600 584.375 253.600 582.788 L 253.600 581.200 250.000 581.200 L 246.400 581.200 246.400 579.400 L 246.400 577.600 243.000 577.600 L 239.600 577.600 239.600 576.000 L 239.600 574.400 238.000 574.400 L 236.400 574.400 236.400 572.600 L 236.400 570.800 232.800 570.800 L 229.200 570.800 229.200 569.000 L 229.200 567.200 227.600 567.200 L 226.000 567.200 226.000 565.600 L 226.000 564.000 224.216 564.000 L 222.431 564.000 222.316 560.500 L 222.200 557.000 220.500 556.877 C 218.808 556.755,218.800 556.746,218.800 555.177 C 218.800 553.604,218.796 553.600,217.200 553.600 L 215.600 553.600 215.600 550.200 L 215.600 546.800 213.800 546.800 L 212.000 546.800 212.000 541.600 L 212.000 536.400 210.409 536.400 L 208.819 536.400 208.709 529.500 L 208.600 522.600 206.905 522.477 L 205.209 522.354 205.105 507.077 L 205.000 491.800 203.300 491.677 L 201.600 491.554 201.600 351.777 L 201.600 212.000 294.800 212.000 L 388.000 212.000 388.000 179.400 L 388.000 146.800 294.800 146.800 L 201.600 146.800 201.600 84.800 L 201.600 22.800 169.000 22.800 L 136.400 22.800 136.400 84.800 M395.200 666.400 L 395.200 668.800 397.600 668.800 L 400.000 668.800 400.000 666.400 L 400.000 664.000 397.600 664.000 L 395.200 664.000 395.200 666.400 " stroke="none" fill="#343434" fill-rule="evenodd"></path></g></svg>