<?xml version="1.0" standalone="no"?>
<!DOCTYPE svg PUBLIC "-//W3C//DTD SVG 20010904//EN"
 "http://www.w3.org/TR/2001/REC-SVG-20010904/DTD/svg10.dtd">
<svg version="1.0" xmlns="http://www.w3.org/2000/svg"
 width="194.000000pt" height="194.000000pt" viewBox="0 0 194.000000 194.000000"
 preserveAspectRatio="xMidYMid meet">
<metadata>
Created by potrace 1.14, written by Peter Selinger 2001-2017
</metadata>
<g transform="translate(0.000000,194.000000) scale(0.100000,-0.100000)"
fill="#000000" stroke="none">
<path d="M790 1690 l0 -180 -180 0 -180 0 0 -90 0 -90 180 0 180 0 0 -458 c0
-414 2 -464 18 -524 53 -190 213 -301 437 -302 50 -1 129 3 178 7 l87 9 0 89
0 89 -72 -7 c-40 -5 -120 -8 -178 -8 -97 0 -109 3 -158 30 -60 33 -87 66 -110
133 -13 39 -16 121 -20 495 l-3 447 270 0 271 0 0 90 0 90 -270 0 -270 0 0
180 0 180 -90 0 -90 0 0 -180z"/>
</g>
</svg>
